<?xml version="1.0" encoding="utf-8"?>
<!-- Generator: Adobe Illustrator 17.0.0, SVG Export Plug-In . SVG Version: 6.00 Build 0)  -->
<!DOCTYPE svg PUBLIC "-//W3C//DTD SVG 1.1//EN" "http://www.w3.org/Graphics/SVG/1.1/DTD/svg11.dtd">
<svg version="1.1" id="Capa_1" xmlns="http://www.w3.org/2000/svg" xmlns:xlink="http://www.w3.org/1999/xlink" x="0px" y="0px"
	 width="64px" height="64px" viewBox="0 0 64 64" enable-background="new 0 0 64 64" xml:space="preserve">
<path d="M41.26,7.491H21.25c-4.418,0-8,3.582-8,8v1.271c1.878,0.062,3.374,1.019,3.374,2.202s-1.496,2.14-3.374,2.202v4.83
	c1.878,0.062,3.374,1.019,3.374,2.202s-1.496,2.14-3.374,2.202v4.829c1.878,0.062,3.374,1.02,3.374,2.202
	c0,1.183-1.496,2.14-3.374,2.202v4.83c1.878,0.062,3.374,1.02,3.374,2.202c0,1.18-1.491,2.136-3.363,2.202
	c0.112,4.321,3.642,7.791,7.989,7.791h20.01c0.839,0,1.647-0.13,2.407-0.37V15.251h5.581C49.12,10.945,45.597,7.491,41.26,7.491z
	 M38,26.611H21v-11.36h17V26.611z M49.26,20.297v4.233c0,1.105-0.73,2-1.63,2s-1.63-0.895-1.63-2v-4.233c0-1.105,0.73-2,1.63-2
	S49.26,19.192,49.26,20.297z M49.26,30.34v4.233c0,1.104-0.73,2-1.63,2s-1.63-0.895-1.63-2V30.34c0-1.105,0.73-2,1.63-2
	S49.26,29.235,49.26,30.34z M49.26,40.382v4.233c0,1.105-0.73,2-1.63,2s-1.63-0.895-1.63-2v-4.233c0-1.105,0.73-2,1.63-2
	S49.26,39.277,49.26,40.382z M49.17,49.796c0.054,0.199,0.09,0.408,0.09,0.629v4.233c0,1.1-0.726,1.993-1.622,1.999
	c-0.003,0-0.005,0.001-0.008,0.001s-0.006-0.001-0.008-0.001c-0.782-0.005-1.434-0.685-1.587-1.591
	C46.012,54.934,46,54.798,46,54.658v-4.233c0-1.105,0.73-2,1.63-2C48.35,48.425,48.954,49.002,49.17,49.796z"/>
</svg>
