<?xml version="1.0" encoding="utf-8"?>
<!-- Generator: Adobe Illustrator 17.0.0, SVG Export Plug-In . SVG Version: 6.00 Build 0)  -->
<!DOCTYPE svg PUBLIC "-//W3C//DTD SVG 1.1//EN" "http://www.w3.org/Graphics/SVG/1.1/DTD/svg11.dtd">
<svg version="1.1" id="Capa_1" xmlns="http://www.w3.org/2000/svg" xmlns:xlink="http://www.w3.org/1999/xlink" x="0px" y="0px"
	 width="64px" height="64px" viewBox="0 0 64 64" enable-background="new 0 0 64 64" xml:space="preserve">
<g id="Your_Icon">
	<path d="M46.063,6.738c0.946,0.525,1.261,1.264,1.261,3.056s-0.206,3.054-1.474,5.267c-0.957,1.701-1.941,3.402-2.938,5.116
		c-1.638,2.817-0.715,8.976,2.05,13.756c0.883,1.527,1.767,3.055,2.65,4.587c2.76,4.784,5.208,9.15,5.217,9.78
		c0.006,0.396-0.073,0.779-0.237,1.105c-0.421,0.739-0.843,1.48-1.37,2.322c-0.63,1.053-1.686,1.368-2.741,0.734
		c-0.209-0.103-0.528-0.528-0.734-0.734c-1.904-2.062-3.807-4.123-5.722-6.184c-3.168-3.408-6.52-6.588-7.456-7.132
		c-0.936-0.544-2.031,0.607-3.276,2.332c-1.024,1.419-2.164,2.799-2.352,3.051c-3.133,4.199-3.651,4.826-0.373,9.296
		c0.673,0.918,0.639,1.895,0.216,2.69c-0.742,1.392-5.933,1.06-9.872-1.221c-2.985-1.729-5.777-3.818-6.497-4.992
		c-1.653-2.697-0.219-3.77,1.943-4.119c3.211-0.518,6.752-2.668,8.473-5.989c1.721-3.321,2.454-6.403,1.518-6.948
		c-0.936-0.544-5.356-1.864-9.895-2.911c-4.538-1.047-8.46-1.91-8.751-1.971s-1.266-0.494-1.481-1.341
		c-0.121-0.476-0.043-1.006,0.219-1.535c0.424-0.737,0.843-1.474,1.374-2.317c0.21-0.315,0.498-0.578,0.826-0.776
		c0.54-0.326,5.546-0.383,11.069-0.383h5.392c5.523,0,11.301-2.301,12.939-5.119c0.979-1.684,1.97-3.38,2.962-5.103
		c1.261-2.211,2.21-2.951,3.79-3.897C44.377,6.316,45.114,6.207,46.063,6.738"/>
</g>
</svg>
