<?xml version="1.0" encoding="utf-8"?>
<!-- Generator: Adobe Illustrator 17.0.0, SVG Export Plug-In . SVG Version: 6.00 Build 0)  -->
<!DOCTYPE svg PUBLIC "-//W3C//DTD SVG 1.1//EN" "http://www.w3.org/Graphics/SVG/1.1/DTD/svg11.dtd">
<svg version="1.1" id="Capa_1" xmlns="http://www.w3.org/2000/svg" xmlns:xlink="http://www.w3.org/1999/xlink" x="0px" y="0px"
	 width="64px" height="64px" viewBox="0 0 64 64" enable-background="new 0 0 64 64" xml:space="preserve">
<path d="M40.732,31.663c-1.145,0-1.958,1.043-1.958,2.188c0,0-0.022,3.564-0.023,6.549c-0.001,2.209-0.093,5.867-1.245,7.751
	c-1.616,2.643-4.527,4.411-7.845,4.411c-5.07,0-9.194-4.124-9.194-9.194V16.969c0-2.87,2.335-5.204,5.204-5.204
	s5.204,2.335,5.204,5.204v26.227c0,0.864-0.703,1.566-1.566,1.566c-0.863,0-1.566-0.702-1.566-1.566V23.469
	c0-1.145-0.928-2.073-2.073-2.073s-2.073,0.928-2.073,2.073v19.898c0,0.059,0.013,0.115,0.017,0.173
	c0.18,2.989,2.661,5.367,5.694,5.367c1.686,0,3.202-0.735,4.247-1.901c1.474-1.645,1.46-5.431,1.461-7.64
	c0.003-5.208,0.003-14.256,0.004-19.463c0-2.209-0.015-4-0.033-4s-0.172-1.866-1.315-3.757c-1.638-2.71-4.611-4.526-8.003-4.526
	c-3.392,0-6.365,1.816-8.003,4.526c-1.142,1.891-1.296,3.757-1.315,3.757s-0.033,1.791-0.033,4v23.464
	c0,7.355,5.984,13.339,13.34,13.339C37.016,56.707,43,50.722,43,43.367l-0.028-9.464C42.972,32.758,41.877,31.663,40.732,31.663z"/>
</svg>
