<?xml version="1.0" encoding="utf-8"?>
<!-- Generator: Adobe Illustrator 17.0.0, SVG Export Plug-In . SVG Version: 6.00 Build 0)  -->
<!DOCTYPE svg PUBLIC "-//W3C//DTD SVG 1.1//EN" "http://www.w3.org/Graphics/SVG/1.1/DTD/svg11.dtd">
<svg version="1.1" id="Capa_1" xmlns="http://www.w3.org/2000/svg" xmlns:xlink="http://www.w3.org/1999/xlink" x="0px" y="0px"
	 width="64px" height="64px" viewBox="0 0 64 64" enable-background="new 0 0 64 64" xml:space="preserve">
<path d="M52.702,18.226l-4.914-4.914c-0.905-0.905-2.409-0.944-3.36-0.089L25.699,30.069c-0.951,0.855-2.504,0.868-3.469,0.028
	l-5.09-4.433c-0.965-0.84-2.48-0.788-3.385,0.117l-6.042,6.042c-0.905,0.905-0.905,2.371,0,3.276l15.141,15.141
	c0,0,0.491,0.491,1.096,1.096c0.605,0.605,1.79,0.325,2.645-0.626l26.194-29.123C53.646,20.635,53.606,19.131,52.702,18.226z"/>
</svg>
