<?xml version="1.0" encoding="utf-8"?>
<!-- Generator: Adobe Illustrator 17.0.0, SVG Export Plug-In . SVG Version: 6.00 Build 0)  -->
<!DOCTYPE svg PUBLIC "-//W3C//DTD SVG 1.1//EN" "http://www.w3.org/Graphics/SVG/1.1/DTD/svg11.dtd">
<svg version="1.1" id="Capa_1" xmlns="http://www.w3.org/2000/svg" xmlns:xlink="http://www.w3.org/1999/xlink" x="0px" y="0px"
	 width="64px" height="64px" viewBox="0 0 64 64" enable-background="new 0 0 64 64" xml:space="preserve">
<path fill="#1D1D1B" d="M49.721,47.251l-6.093-33.958c-0.293-1.631-1.852-2.716-3.483-2.423l-9.679,1.737
	c-1.201,0.216-2.101,1.12-2.378,2.232c-0.302-1.338-1.492-2.339-2.922-2.339h-9.833c-1.657,0-3,1.343-3,3V50c0,1.657,1.343,3,3,3
	h9.833c1.657,0,3-1.343,3-3V16.781l5.97,33.266c0.293,1.631,1.852,2.716,3.483,2.423l9.678-1.737
	C48.929,50.441,50.014,48.882,49.721,47.251z M23.333,51h-6.432c-1.105,0-2-0.448-2-1s0.895-1,2-1h6.432c1.105,0,2,0.448,2,1
	S24.438,51,23.333,51z M23.333,48.333h-6.432c-1.105,0-2-0.448-2-1s0.895-1,2-1h6.432c1.105,0,2,0.448,2,1
	S24.438,48.333,23.333,48.333z M23.333,45.667h-6.432c-1.105,0-2-0.448-2-1s0.895-1,2-1h6.432c1.105,0,2,0.448,2,1
	S24.438,45.667,23.333,45.667z M22.333,21.833h-4.432c-1.657,0-3-1.343-3-3s1.343-3,3-3h4.432c1.657,0,3,1.343,3,3
	S23.99,21.833,22.333,21.833z M34.643,21.34c-1.631,0.293-3.19-0.792-3.483-2.423c-0.293-1.631,0.792-3.19,2.423-3.483l4.362-0.783
	c1.631-0.293,3.19,0.792,3.483,2.423c0.293,1.631-0.792,3.19-2.423,3.483L34.643,21.34z M35.722,44.344
	c-0.098-0.544,0.705-1.142,1.792-1.337l6.331-1.136c1.087-0.195,2.048,0.088,2.145,0.631c0.097,0.543-0.705,1.142-1.792,1.337
	l-6.331,1.136C36.78,45.17,35.82,44.887,35.722,44.344z M36.193,46.969c-0.098-0.544,0.705-1.143,1.792-1.338l6.331-1.136
	c1.087-0.195,2.048,0.087,2.145,0.631s-0.705,1.143-1.792,1.338l-6.33,1.136C37.251,47.795,36.291,47.512,36.193,46.969z
	 M45.14,49.089l-6.331,1.136c-1.087,0.195-2.047-0.088-2.145-0.631c-0.098-0.544,0.705-1.143,1.792-1.338l6.331-1.136
	c1.087-0.195,2.048,0.087,2.145,0.631S46.227,48.894,45.14,49.089z"/>
</svg>
