<?xml version="1.0" encoding="utf-8"?>
<!-- Generator: Adobe Illustrator 17.0.0, SVG Export Plug-In . SVG Version: 6.00 Build 0)  -->
<!DOCTYPE svg PUBLIC "-//W3C//DTD SVG 1.1//EN" "http://www.w3.org/Graphics/SVG/1.1/DTD/svg11.dtd">
<svg version="1.1" id="Capa_1" xmlns="http://www.w3.org/2000/svg" xmlns:xlink="http://www.w3.org/1999/xlink" x="0px" y="0px"
	 width="64px" height="64px" viewBox="0 0 64 64" enable-background="new 0 0 64 64" xml:space="preserve">
<path d="M23.721,20.5h-4.017c0.009-0.102,0.01-0.204,0.024-0.306l0.077-0.591c0.473-3.621,3.704-6.457,7.355-6.457h9.793
	c3.651,0,6.882,2.837,7.354,6.457l0.077,0.591c0.013,0.102,0.015,0.204,0.024,0.306h-4.017l-0.049-0.379
	c-0.214-1.643-1.731-2.975-3.388-2.975h-9.794c-1.657,0-3.174,1.332-3.388,2.975L23.721,20.5z M53.972,27.5V46c0,2.761-2.239,5-5,5
	H15.139c-2.761,0-5-2.239-5-5V27.5c0-2.761,2.239-5,5-5h4.685h4.252h15.958h4.251h4.687C51.733,22.5,53.972,24.739,53.972,27.5z
	 M25.333,32c0-2.945-2.388-5.333-5.333-5.333S14.667,29.055,14.667,32s2.388,5.333,5.333,5.333S25.333,34.945,25.333,32z"/>
</svg>
