<?xml version="1.0" encoding="utf-8"?>
<!-- Generator: Adobe Illustrator 17.0.0, SVG Export Plug-In . SVG Version: 6.00 Build 0)  -->
<!DOCTYPE svg PUBLIC "-//W3C//DTD SVG 1.1//EN" "http://www.w3.org/Graphics/SVG/1.1/DTD/svg11.dtd">
<svg version="1.1" id="Capa_1" xmlns="http://www.w3.org/2000/svg" xmlns:xlink="http://www.w3.org/1999/xlink" x="0px" y="0px"
	 width="64px" height="64px" viewBox="0 0 64 64" enable-background="new 0 0 64 64" xml:space="preserve">
<g>
	<path d="M17.25,52.667h29c4.418,0,8-3.582,8-8h-45C9.25,49.085,12.832,52.667,17.25,52.667z"/>
	<path d="M46.25,18.75h-4.199c-1.488-4.262-5.537-7.334-10.301-7.334s-8.813,3.072-10.301,7.334H17.25c-4.418,0-8,3.582-8,8v14.917
		h45V26.75C54.25,22.332,50.668,18.75,46.25,18.75z M25.845,18.75c1.215-1.995,3.404-3.334,5.905-3.334
		c2.502,0,4.691,1.339,5.905,3.334H25.845z"/>
</g>
</svg>
