<?xml version="1.0" encoding="utf-8"?>
<!-- Generator: Adobe Illustrator 17.0.0, SVG Export Plug-In . SVG Version: 6.00 Build 0)  -->
<!DOCTYPE svg PUBLIC "-//W3C//DTD SVG 1.1//EN" "http://www.w3.org/Graphics/SVG/1.1/DTD/svg11.dtd">
<svg version="1.1" id="Capa_1" xmlns="http://www.w3.org/2000/svg" xmlns:xlink="http://www.w3.org/1999/xlink" x="0px" y="0px"
	 width="64px" height="64px" viewBox="0 0 64 64" enable-background="new 0 0 64 64" xml:space="preserve">
<path d="M35.408,20.688c3.585-0.686,6.869-2.216,9.64-4.376c0.871-0.679,0.873-1.916,0.002-2.595
	c-2.771-2.161-6.056-3.691-9.641-4.377c-1.085-0.208-1.978,0.607-1.978,1.711v7.926C33.43,20.081,34.323,20.896,35.408,20.688z"/>
<path d="M17.201,16.311c2.925,2.278,6.424,3.848,10.244,4.47c1.09,0.178,1.986-0.661,1.986-1.765v-8.003
	c0-1.105-0.896-1.943-1.986-1.765c-3.819,0.622-7.319,2.192-10.243,4.47C16.329,14.396,16.329,15.632,17.201,16.311z"/>
<path d="M27.444,42.414c-3.819,0.622-7.319,2.192-10.243,4.47c-0.871,0.679-0.871,1.915,0,2.593
	c2.925,2.278,6.424,3.848,10.244,4.47c1.09,0.178,1.986-0.661,1.986-1.765v-8.003C29.43,43.074,28.534,42.236,27.444,42.414z"/>
<path d="M45.048,46.883c-2.77-2.16-6.054-3.69-9.638-4.376c-1.085-0.208-1.979,0.606-1.979,1.711v7.926
	c0,1.105,0.893,1.919,1.978,1.711c3.585-0.686,6.869-2.216,9.64-4.376C45.919,48.799,45.919,47.562,45.048,46.883z"/>
<path d="M27.43,33.537H10.542c-1.105,0-1.933,0.894-1.744,1.982c0.508,2.913,1.572,5.634,3.079,8.051
	c0.584,0.937,1.783,1.034,2.646,0.345c3.65-2.912,8.078-4.886,12.917-5.558c1.094-0.152,1.99-1.096,1.99-2.201v-0.62
	C29.43,34.433,28.535,33.537,27.43,33.537z"/>
<path d="M33.43,35.537v0.664c0,1.105,0.893,2.069,1.984,2.246c4.603,0.748,8.814,2.677,12.311,5.467
	c0.863,0.689,2.063,0.594,2.647-0.344c1.507-2.417,2.571-5.139,3.079-8.051c0.19-1.088-0.639-1.983-1.744-1.983H35.43
	C34.326,33.537,33.43,34.433,33.43,35.537z"/>
<path d="M35.43,29.537h16.263c1.105,0,1.929-0.894,1.733-1.981c-0.515-2.867-1.569-5.548-3.054-7.932
	c-0.584-0.938-1.784-1.034-2.647-0.345c-3.497,2.79-7.708,4.719-12.311,5.467c-1.09,0.177-1.984,1.142-1.984,2.246v0.544
	C33.43,28.642,34.326,29.537,35.43,29.537z"/>
<path d="M27.441,24.837c-4.839-0.672-9.267-2.646-12.917-5.557c-0.863-0.689-2.063-0.593-2.647,0.345
	c-1.485,2.384-2.538,5.064-3.054,7.932c-0.195,1.087,0.629,1.981,1.733,1.981H27.43c1.105,0,2-0.895,2-2v-0.5
	C29.43,25.933,28.535,24.989,27.441,24.837z"/>
</svg>
