<?xml version="1.0" encoding="utf-8"?>
<!-- Generator: Adobe Illustrator 17.0.0, SVG Export Plug-In . SVG Version: 6.00 Build 0)  -->
<!DOCTYPE svg PUBLIC "-//W3C//DTD SVG 1.1//EN" "http://www.w3.org/Graphics/SVG/1.1/DTD/svg11.dtd">
<svg version="1.1" id="Capa_1" xmlns="http://www.w3.org/2000/svg" xmlns:xlink="http://www.w3.org/1999/xlink" x="0px" y="0px"
	 width="64px" height="64px" viewBox="0 0 64 64" enable-background="new 0 0 64 64" xml:space="preserve">
<path d="M51.041,29h-6.148l-4.911-11.051c-0.673-1.513-2.445-2.196-3.959-1.523c-1.515,0.673-2.196,2.446-1.523,3.96L38.328,29
	H25.297l3.828-8.615c0.673-1.514-0.009-3.287-1.523-3.96c-1.513-0.67-3.286,0.009-3.96,1.523L18.731,29h-6.148c-2.209,0-4,1.791-4,4
	v2.618c0,1.919,1.353,3.519,3.156,3.907l0.518,2.711c0,4.418,3.582,8,8,8h23.11c4.419,0,8-3.581,8.001-8l0.518-2.711
	c1.803-0.388,3.155-1.988,3.155-3.907V33C55.041,30.791,53.25,29,51.041,29z M21.668,42.868c0,1.104-0.896,2-2,2s-2-0.896-2-2v-3.25
	V35.5c0-0.046,0.01-0.089,0.014-0.134c0.07-1.041,0.928-1.866,1.986-1.866c1.104,0,2,0.896,2,2V36v3.618V42.868z M33.812,42.868
	c0,1.104-0.896,2-2,2c-1.104,0-2-0.896-2-2v-3.25V35.5c0-1.104,0.896-2,2-2c1.105,0,2,0.896,2,2v4.118V42.868z M45.956,42.868
	c0,1.104-0.896,2-2,2s-2-0.896-2-2v-3.25v-3.619V35.5c0-1.104,0.896-2,2-2c1.059,0,1.916,0.825,1.987,1.866
	c0.003,0.045,0.013,0.088,0.013,0.134v4.118V42.868z"/>
</svg>
