<?xml version="1.0" encoding="utf-8"?>
<!-- Generator: Adobe Illustrator 17.0.0, SVG Export Plug-In . SVG Version: 6.00 Build 0)  -->
<!DOCTYPE svg PUBLIC "-//W3C//DTD SVG 1.1//EN" "http://www.w3.org/Graphics/SVG/1.1/DTD/svg11.dtd">
<svg version="1.1" id="Capa_1" xmlns="http://www.w3.org/2000/svg" xmlns:xlink="http://www.w3.org/1999/xlink" x="0px" y="0px"
	 width="64px" height="64px" viewBox="0 0 64 64" enable-background="new 0 0 64 64" xml:space="preserve">
<g>
	<path d="M43.393,46.949h-31c-4.418,0-8-3.582-8-8V28.594c0-4.418,3.582-8,8-8h31c4.418,0,8,3.582,8,8v10.355
		C51.393,43.368,47.812,46.949,43.393,46.949z"/>
	<path d="M52.273,40.164H49.94c-2.209,0-4-1.791-4-4V31.38c0-2.209,1.791-4,4-4h2.333c2.209,0,4,1.791,4,4v4.783
		C56.273,38.373,54.482,40.164,52.273,40.164z"/>
</g>
<path fill="#FFFFFF" d="M39.256,29.612h-4.98h-9.543c-0.637,0.301-1.081,0.945-1.081,1.697v0.062c0,1.039-0.721,2.318-1.61,2.856
	l-4.904,2.969c-0.889,0.538-0.767,0.975,0.272,0.975h6.242h0.62h6.242c1.039,0,1.882-0.731,1.882-1.632s0.721-2.069,1.61-2.607
	l5.524-3.344C40.417,30.049,40.295,29.612,39.256,29.612z"/>
</svg>
