<?xml version="1.0" encoding="utf-8"?>
<!-- Generator: Adobe Illustrator 17.0.0, SVG Export Plug-In . SVG Version: 6.00 Build 0)  -->
<!DOCTYPE svg PUBLIC "-//W3C//DTD SVG 1.1//EN" "http://www.w3.org/Graphics/SVG/1.1/DTD/svg11.dtd">
<svg version="1.1" id="Capa_1" xmlns="http://www.w3.org/2000/svg" xmlns:xlink="http://www.w3.org/1999/xlink" x="0px" y="0px"
	 width="64px" height="64px" viewBox="0 0 64 64" enable-background="new 0 0 64 64" xml:space="preserve">
<path d="M22,49.5h-8.833c-1.105,0-2-0.895-2-2v-28c0-1.105,0.856-2.262,1.913-2.584l2.722-0.831
	c1.056-0.323,2.766-0.313,3.819,0.022l2.474,0.787C23.147,17.229,24,18.395,24,19.5v28C24,48.605,23.105,49.5,22,49.5z"/>
<path d="M52.833,49.5H44c-1.105,0-2-0.895-2-2v-28c0-1.105,0.856-2.262,1.913-2.584l2.722-0.831
	c1.056-0.323,2.766-0.313,3.819,0.022l2.474,0.787c1.053,0.335,1.906,1.502,1.906,2.606v28C54.833,48.605,53.938,49.5,52.833,49.5z"
	/>
<path d="M37.417,49.5h-8.833c-1.105,0-2-0.895-2-2v-28c0-1.105,0.856-2.262,1.913-2.584l2.722-0.831
	c1.056-0.323,2.766-0.313,3.819,0.022l2.474,0.787c1.053,0.335,1.906,1.502,1.906,2.606v28C39.417,48.605,38.521,49.5,37.417,49.5z"
	/>
<g>
	<path d="M9.667,32.167c-1.654,0-3-1.346-3-3V27c0-1.654,1.346-3,3-3h46.166c1.654,0,3,1.346,3,3v2.167c0,1.654-1.346,3-3,3H9.667z"
		/>
	<path fill="#FFFFFF" d="M55.833,25c1.105,0,2,0.895,2,2v2.167c0,1.105-0.895,2-2,2H9.667c-1.105,0-2-0.895-2-2V27
		c0-1.105,0.895-2,2-2H55.833 M55.833,23H9.667c-2.206,0-4,1.794-4,4v2.167c0,2.206,1.794,4,4,4h46.167c2.206,0,4-1.794,4-4V27
		C59.833,24.794,58.039,23,55.833,23L55.833,23z"/>
</g>
<circle fill="#FFFFFF" cx="16.583" cy="28.083" r="1.583"/>
<circle fill="#FFFFFF" cx="48.667" cy="28.083" r="1.583"/>
<circle fill="#FFFFFF" cx="32.833" cy="28.083" r="1.583"/>
</svg>
