<?xml version="1.0" encoding="utf-8"?>
<!-- Generator: Adobe Illustrator 17.0.0, SVG Export Plug-In . SVG Version: 6.00 Build 0)  -->
<!DOCTYPE svg PUBLIC "-//W3C//DTD SVG 1.1//EN" "http://www.w3.org/Graphics/SVG/1.1/DTD/svg11.dtd">
<svg version="1.1" id="Capa_1" xmlns="http://www.w3.org/2000/svg" xmlns:xlink="http://www.w3.org/1999/xlink" x="0px" y="0px"
	 width="64px" height="64px" viewBox="0 0 64 64" enable-background="new 0 0 64 64" xml:space="preserve">
<path d="M45.12,47.157h-31c-4.418,0-8-3.582-8-8V28.802c0-4.418,3.582-8,8-8h31c4.418,0,8,3.582,8,8v10.355
	C53.12,43.575,49.538,47.157,45.12,47.157z"/>
<path d="M54,40.371h-2.333c-2.209,0-4-1.791-4-4v-4.783c0-2.209,1.791-4,4-4H54c2.209,0,4,1.791,4,4v4.783
	C58,38.58,56.209,40.371,54,40.371z"/>
</svg>
