<?xml version="1.0" encoding="utf-8"?>
<!-- Generator: Adobe Illustrator 17.0.0, SVG Export Plug-In . SVG Version: 6.00 Build 0)  -->
<!DOCTYPE svg PUBLIC "-//W3C//DTD SVG 1.1//EN" "http://www.w3.org/Graphics/SVG/1.1/DTD/svg11.dtd">
<svg version="1.1" id="Capa_1" xmlns="http://www.w3.org/2000/svg" xmlns:xlink="http://www.w3.org/1999/xlink" x="0px" y="0px"
	 width="64px" height="64px" viewBox="0 0 64 64" enable-background="new 0 0 64 64" xml:space="preserve">
<path fill="#1D1D1B" d="M31.206,60.306c-0.64,0-1.28-0.244-1.768-0.732L6.667,36.803c-0.977-0.977-0.977-2.559,0-3.535
	c0.976-0.977,2.56-0.977,3.535,0l22.771,22.771c0.977,0.977,0.977,2.559,0,3.535C32.486,60.062,31.846,60.306,31.206,60.306z
	 M52.257,17.115c-4.936-4.936-7.976-7.976-12.912-12.912c-0.781-0.781-1.93-0.681-2.609,0.19
	c-7.515,9.632-18.37,15.432-25.885,25.064c-0.679,0.871-0.56,2.238,0.221,3.019c4.936,4.936,7.976,7.976,12.912,12.912
	c0.781,0.781,1.93,0.681,2.609-0.19c7.515-9.632,18.37-15.432,25.885-25.064C53.157,19.264,53.038,17.897,52.257,17.115z"/>
</svg>
