<?xml version="1.0" encoding="utf-8"?>
<!-- Generator: Adobe Illustrator 17.0.0, SVG Export Plug-In . SVG Version: 6.00 Build 0)  -->
<!DOCTYPE svg PUBLIC "-//W3C//DTD SVG 1.1//EN" "http://www.w3.org/Graphics/SVG/1.1/DTD/svg11.dtd">
<svg version="1.1" id="Capa_1" xmlns="http://www.w3.org/2000/svg" xmlns:xlink="http://www.w3.org/1999/xlink" x="0px" y="0px"
	 width="64px" height="64px" viewBox="0 0 64 64" enable-background="new 0 0 64 64" xml:space="preserve">
<polygon points="36.584,55.979 25.625,55.979 28.135,19.1 34.074,19.1 "/>
<g>
	<path d="M16.03,33.645c0,0-0.094-0.365-0.257-1.005c-0.04-0.16-0.085-0.337-0.134-0.53c-0.023-0.211-0.048-0.439-0.074-0.682
		c-0.05-0.495-0.121-1.08-0.087-1.676c0.009-0.308,0.018-0.629,0.028-0.96c0.041-0.331,0.084-0.674,0.128-1.026
		c0.06-0.727,0.312-1.436,0.501-2.222c0.276-0.739,0.523-1.558,0.949-2.295c0.365-0.783,0.881-1.485,1.378-2.225
		c0.557-0.68,1.055-1.457,1.659-2.14c0.568-0.728,1.261-1.318,1.994-1.785c0.776-0.386,1.565-0.7,2.38-0.764
		c0.395-0.065,0.792-0.075,1.163-0.104c0.387,0.025,0.752,0.039,1.106,0.096c0.698,0.069,1.339,0.281,1.887,0.519
		c0.268,0.124,0.519,0.239,0.751,0.347c0.229,0.142,0.436,0.291,0.617,0.417c0.364,0.266,0.634,0.505,0.814,0.693
		c0.177,0.188,0.271,0.288,0.271,0.288v0.8c0,0-0.086,0.109-0.246,0.314c-0.157,0.205-0.382,0.47-0.647,0.767
		c-0.266,0.293-0.571,0.628-0.89,1.003c-0.32,0.365-0.662,0.708-1.003,1.085c-0.349,0.347-0.697,0.701-1.057,1.033
		c-0.371,0.305-0.715,0.66-1.168,0.831c-0.409,0.252-0.959,0.311-1.493,0.483c-0.569,0.12-1.097,0.361-1.613,0.642
		c-0.464,0.332-0.966,0.656-1.404,1.047c-0.473,0.364-0.876,0.789-1.318,1.192c-0.367,0.443-0.785,0.867-1.094,1.327
		c-0.169,0.229-0.333,0.452-0.491,0.668c-0.136,0.232-0.268,0.456-0.394,0.671c-0.274,0.442-0.476,0.839-0.653,1.214
		c-0.093,0.19-0.18,0.369-0.26,0.534c-0.068,0.186-0.131,0.358-0.188,0.512c-0.227,0.62-0.357,0.974-0.357,0.974L16.03,33.645z"/>
</g>
<g>
	<path d="M45.763,33.685c0,0-0.13-0.354-0.357-0.974c-0.057-0.155-0.12-0.326-0.188-0.512c-0.08-0.165-0.167-0.343-0.26-0.534
		c-0.178-0.374-0.379-0.771-0.653-1.214c-0.126-0.215-0.258-0.439-0.394-0.671c-0.159-0.216-0.323-0.438-0.491-0.668
		c-0.309-0.459-0.727-0.883-1.094-1.327c-0.443-0.404-0.845-0.828-1.318-1.192c-0.437-0.391-0.94-0.714-1.404-1.047
		c-0.516-0.281-1.043-0.522-1.613-0.642c-0.534-0.172-1.084-0.231-1.493-0.483c-0.453-0.171-0.797-0.525-1.168-0.831
		c-0.359-0.333-0.708-0.686-1.057-1.033c-0.34-0.378-0.682-0.72-1.003-1.085c-0.318-0.376-0.624-0.71-0.89-1.003
		c-0.266-0.297-0.49-0.562-0.647-0.767c-0.161-0.205-0.246-0.314-0.246-0.314v-0.8c0,0,0.094-0.1,0.271-0.288
		c0.18-0.188,0.45-0.428,0.814-0.693c0.181-0.126,0.388-0.276,0.617-0.417c0.232-0.107,0.483-0.223,0.751-0.347
		c0.549-0.238,1.189-0.45,1.887-0.519c0.354-0.057,0.719-0.071,1.106-0.096c0.37,0.028,0.768,0.039,1.163,0.104
		c0.815,0.064,1.604,0.378,2.38,0.764c0.733,0.467,1.427,1.057,1.994,1.785c0.604,0.683,1.103,1.459,1.659,2.14
		c0.497,0.74,1.013,1.443,1.378,2.225c0.427,0.737,0.673,1.556,0.949,2.295c0.19,0.786,0.441,1.495,0.501,2.222
		c0.044,0.352,0.087,0.695,0.128,1.026c0.01,0.332,0.019,0.653,0.028,0.96c0.034,0.596-0.036,1.182-0.087,1.676
		c-0.027,0.243-0.052,0.471-0.075,0.682c-0.049,0.193-0.093,0.37-0.134,0.53c-0.164,0.639-0.257,1.005-0.257,1.005L45.763,33.685z"
		/>
</g>
<g>
	<path d="M51.973,19.286c0,0-0.342-0.159-0.941-0.436c-0.149-0.069-0.315-0.146-0.495-0.229c-0.173-0.06-0.361-0.124-0.561-0.194
		c-0.39-0.139-0.813-0.277-1.32-0.396c-0.241-0.063-0.493-0.128-0.753-0.196c-0.265-0.04-0.538-0.082-0.819-0.125
		c-0.543-0.106-1.138-0.111-1.711-0.165c-0.598,0.027-1.183,0.012-1.775,0.089c-0.586,0.033-1.169,0.16-1.732,0.252
		c-0.563,0.166-1.107,0.368-1.594,0.686c-0.499,0.256-0.93,0.603-1.397,0.714c-0.441,0.199-0.935,0.192-1.413,0.239
		c-0.489,0.019-0.986,0.016-1.478,0.017c-0.508-0.027-0.992-0.027-1.476-0.058c-0.491-0.04-0.943-0.061-1.339-0.08
		c-0.398-0.022-0.744-0.051-1-0.085c-0.258-0.031-0.396-0.048-0.396-0.048l-0.566-0.566c0,0-0.004-0.137-0.012-0.395
		c-0.006-0.26,0.016-0.621,0.085-1.066c0.039-0.217,0.079-0.469,0.141-0.731c0.088-0.24,0.184-0.499,0.286-0.776
		c0.22-0.556,0.523-1.159,0.968-1.701c0.21-0.29,0.458-0.558,0.714-0.85c0.282-0.242,0.57-0.515,0.896-0.749
		c0.622-0.531,1.402-0.867,2.224-1.142c0.849-0.188,1.756-0.262,2.672-0.148c0.91,0.056,1.812,0.252,2.686,0.34
		c0.875,0.172,1.736,0.304,2.548,0.599c0.823,0.219,1.577,0.625,2.294,0.952c0.69,0.421,1.369,0.745,1.925,1.216
		c0.28,0.218,0.553,0.43,0.816,0.635c0.242,0.228,0.475,0.448,0.699,0.659c0.445,0.397,0.81,0.861,1.124,1.247
		c0.153,0.191,0.297,0.37,0.43,0.535c0.102,0.171,0.196,0.328,0.28,0.469c0.336,0.568,0.528,0.892,0.528,0.892L51.973,19.286z"/>
</g>
<g>
	<path d="M10.082,18.693c0,0,0.192-0.325,0.528-0.892c0.085-0.142,0.178-0.299,0.28-0.469c0.133-0.165,0.276-0.344,0.43-0.535
		c0.314-0.385,0.679-0.85,1.124-1.247c0.224-0.211,0.457-0.432,0.699-0.659c0.264-0.205,0.536-0.417,0.816-0.635
		c0.557-0.471,1.236-0.795,1.925-1.216c0.718-0.327,1.471-0.732,2.294-0.952c0.812-0.295,1.673-0.427,2.548-0.599
		c0.875-0.088,1.776-0.284,2.686-0.34c0.916-0.114,1.824-0.04,2.672,0.148c0.822,0.276,1.602,0.611,2.224,1.142
		c0.325,0.234,0.614,0.507,0.896,0.749c0.256,0.292,0.504,0.559,0.714,0.85c0.445,0.543,0.748,1.145,0.968,1.701
		c0.102,0.277,0.198,0.536,0.286,0.776c0.062,0.262,0.102,0.514,0.141,0.731c0.07,0.445,0.091,0.806,0.085,1.066
		c-0.008,0.258-0.012,0.395-0.012,0.395l-0.566,0.566c0,0-0.138,0.017-0.396,0.048c-0.256,0.034-0.602,0.062-1,0.085
		c-0.396,0.019-0.848,0.04-1.339,0.08c-0.485,0.032-0.969,0.032-1.476,0.058c-0.492-0.001-0.989,0.002-1.478-0.017
		c-0.478-0.047-0.972-0.039-1.413-0.239c-0.467-0.112-0.898-0.458-1.397-0.714c-0.487-0.318-1.031-0.52-1.594-0.686
		c-0.563-0.093-1.147-0.22-1.732-0.252c-0.592-0.077-1.177-0.062-1.775-0.089c-0.573,0.054-1.168,0.058-1.711,0.165
		c-0.281,0.043-0.555,0.084-0.819,0.125c-0.26,0.068-0.512,0.133-0.753,0.196c-0.507,0.119-0.93,0.257-1.32,0.396
		c-0.2,0.069-0.388,0.134-0.561,0.194c-0.18,0.083-0.346,0.16-0.495,0.229c-0.599,0.277-0.941,0.436-0.941,0.436L10.082,18.693z"/>
</g>
<circle cx="31.104" cy="16.749" r="3.812"/>
</svg>
