<?xml version="1.0" encoding="utf-8"?>
<!-- Generator: Adobe Illustrator 17.0.0, SVG Export Plug-In . SVG Version: 6.00 Build 0)  -->
<!DOCTYPE svg PUBLIC "-//W3C//DTD SVG 1.1//EN" "http://www.w3.org/Graphics/SVG/1.1/DTD/svg11.dtd">
<svg version="1.1" id="Capa_1" xmlns="http://www.w3.org/2000/svg" xmlns:xlink="http://www.w3.org/1999/xlink" x="0px" y="0px"
	 width="64px" height="64px" viewBox="0 0 64 64" enable-background="new 0 0 64 64" xml:space="preserve">
<path d="M50.277,13.5H12.64c0.889-2.918,3.402-5.12,6.485-5.572V7.833c0-1.105,0.895-2,2-2h20.667c1.104,0,2,0.896,2,2v0.095
	C46.875,8.38,49.388,10.582,50.277,13.5z M50.616,37.595h-9.978h-6.669h-5.021h-6.669h-9.978c0.083,3.748,2.739,6.859,6.275,7.633
	l-2.65,5.463c-0.723,1.491-0.101,3.285,1.39,4.009c0.422,0.204,0.868,0.302,1.308,0.302c1.113,0,2.183-0.623,2.701-1.691
	l3.829-7.893h12.611l3.829,7.893c0.519,1.068,1.588,1.691,2.701,1.691c0.439,0,0.886-0.098,1.308-0.302
	c1.49-0.724,2.112-2.518,1.39-4.009l-2.65-5.463C47.877,44.454,50.533,41.344,50.616,37.595z M27.25,24.417c0-1.105-0.895-2-2-2
	h-2.417c-1.105,0-2,0.895-2,2v7.735h-1.708c-0.797,0-1.443,0.646-1.443,1.443s0.646,1.442,1.443,1.442h4.395h6.669h2.539h6.669
	h4.395c0.797,0,1.442-0.646,1.442-1.442s-0.646-1.443-1.442-1.443h-1.709V17.833c0-1.104-0.895-2-2-2h-2.417c-1.105,0-2,0.895-2,2
	v9.514v4.805h-0.999v-6.864v-4.663c0-1.105-0.896-2-2-2H30.25c-1.105,0-2,0.895-2,2v4.661v6.866h-1v-4.804V24.417z"/>
</svg>
