<?xml version="1.0" encoding="utf-8"?>
<!-- Generator: Adobe Illustrator 17.0.0, SVG Export Plug-In . SVG Version: 6.00 Build 0)  -->
<!DOCTYPE svg PUBLIC "-//W3C//DTD SVG 1.1//EN" "http://www.w3.org/Graphics/SVG/1.1/DTD/svg11.dtd">
<svg version="1.1" id="Capa_1" xmlns="http://www.w3.org/2000/svg" xmlns:xlink="http://www.w3.org/1999/xlink" x="0px" y="0px"
	 width="64px" height="64px" viewBox="0 0 64 64" enable-background="new 0 0 64 64" xml:space="preserve">
<path d="M56.38,29.08l-7.066-9.44c-1.324-1.769-2.397-3.247-2.397-3.303s-1.791-0.101-4-0.101h-22c-2.209,0-4,0.096-4,0.214
	s-0.064,0.149-0.144,0.07s-1.217,1.29-2.541,3.059L7.12,29.08c-1.324,1.769-1.131,4.469,0.431,6.031l2.824,2.824
	c1.562,1.562,3.66,1.997,4.685,0.972s1.856-0.066,1.856,2.144v9.186c0,2.209,1.791,4,4,4h22c2.209,0,4-1.791,4-4v-8.852
	c0-2.209,0.757-3.243,1.69-2.31s2.956,0.423,4.518-1.139l2.824-2.824C57.511,33.549,57.704,30.849,56.38,29.08z"/>
<circle fill="#FFFFFF" cx="31.375" cy="16.376" r="7.667"/>
</svg>
