<?xml version="1.0" encoding="utf-8"?>
<!-- Generator: Adobe Illustrator 17.0.0, SVG Export Plug-In . SVG Version: 6.00 Build 0)  -->
<!DOCTYPE svg PUBLIC "-//W3C//DTD SVG 1.1//EN" "http://www.w3.org/Graphics/SVG/1.1/DTD/svg11.dtd">
<svg version="1.1" id="Capa_1" xmlns="http://www.w3.org/2000/svg" xmlns:xlink="http://www.w3.org/1999/xlink" x="0px" y="0px"
	 width="64px" height="64px" viewBox="0 0 64 64" enable-background="new 0 0 64 64" xml:space="preserve">
<path fill="#1D1D1B" d="M19.204,54.088c-1.534,0-2.99-1.225-3.252-2.737l-2.06-11.887c-0.262-1.512,0.769-2.737,2.303-2.737H51.38
	c1.534,0,2.025,0.99,1.097,2.212l-8.152,10.727c-1.857,2.443-5.849,4.423-8.917,4.423H19.204z"/>
<path fill="#1D1D1B" d="M24.602,10.328v21.084c0,1.657,1.343,3,3,3h11.593c1.657,0,2.268-1.126,1.366-2.516L26.236,9.844
	C25.334,8.455,24.602,8.672,24.602,10.328z"/>
</svg>
