<?xml version="1.0" encoding="utf-8"?>
<!-- Generator: Adobe Illustrator 17.0.0, SVG Export Plug-In . SVG Version: 6.00 Build 0)  -->
<!DOCTYPE svg PUBLIC "-//W3C//DTD SVG 1.1//EN" "http://www.w3.org/Graphics/SVG/1.1/DTD/svg11.dtd">
<svg version="1.1" id="Capa_1" xmlns="http://www.w3.org/2000/svg" xmlns:xlink="http://www.w3.org/1999/xlink" x="0px" y="0px"
	 width="64px" height="64px" viewBox="0 0 64 64" enable-background="new 0 0 64 64" xml:space="preserve">
<path fill="#1D1D1B" d="M44.604,24.913H25.342V16.96c0-0.871,0.708-1.579,1.579-1.579h10.158c0.871,0,1.579,0.708,1.579,1.579h7
	c0-4.73-3.849-8.579-8.579-8.579H26.921c-4.73,0-8.579,3.849-8.579,8.579v8.069c-2.254,0.485-3.946,2.485-3.946,4.884v18.921
	c0,2.761,2.239,5,5,5h25.208c2.761,0,5-2.239,5-5V29.913C49.604,27.152,47.365,24.913,44.604,24.913z M25.978,39.374
	c0-2.624,1.681-4.849,4.022-5.675v11.349C27.659,44.223,25.978,41.998,25.978,39.374z M34,45.049V33.699
	c2.341,0.826,4.022,3.051,4.022,5.675C38.022,41.998,36.341,44.223,34,45.049z"/>
</svg>
