<?xml version="1.0" encoding="utf-8"?>
<!-- Generator: Adobe Illustrator 17.0.0, SVG Export Plug-In . SVG Version: 6.00 Build 0)  -->
<!DOCTYPE svg PUBLIC "-//W3C//DTD SVG 1.1//EN" "http://www.w3.org/Graphics/SVG/1.1/DTD/svg11.dtd">
<svg version="1.1" id="Capa_1" xmlns="http://www.w3.org/2000/svg" xmlns:xlink="http://www.w3.org/1999/xlink" x="0px" y="0px"
	 width="64px" height="64px" viewBox="0 0 64 64" enable-background="new 0 0 64 64" xml:space="preserve">
<path d="M46.667,21.334c0,3.621-3.602,8.134-6.358,12.018C39.67,34.253,38.28,35,37.175,35h-9.349c-1.105,0-2.495-0.747-3.163-1.626
	c-2.95-3.89-7.33-8.412-7.33-12.04c0-8.1,6.567-14.667,14.667-14.667S46.667,13.233,46.667,21.334z M36.55,48h-9.1
	c-1.105,0-1.66,0.831-1.153,1.812C27.882,52.875,29.857,55,32,55s4.118-2.125,5.703-5.188C38.21,48.831,37.655,48,36.55,48z
	 M38.55,37.065H25.616c-0.885,0-1.602,0.717-1.602,1.602s0.717,1.602,1.602,1.602H38.55c0.885,0,1.602-0.717,1.602-1.602
	S39.435,37.065,38.55,37.065z M37.892,42.815H26.275c-0.838,0-1.518,0.68-1.518,1.518s0.68,1.518,1.518,1.518h11.617
	c0.838,0,1.518-0.68,1.518-1.518S38.729,42.815,37.892,42.815z"/>
</svg>
