<?xml version="1.0" encoding="utf-8"?>
<!-- Generator: Adobe Illustrator 17.0.0, SVG Export Plug-In . SVG Version: 6.00 Build 0)  -->
<!DOCTYPE svg PUBLIC "-//W3C//DTD SVG 1.1//EN" "http://www.w3.org/Graphics/SVG/1.1/DTD/svg11.dtd">
<svg version="1.1" id="Capa_1" xmlns="http://www.w3.org/2000/svg" xmlns:xlink="http://www.w3.org/1999/xlink" x="0px" y="0px"
	 width="64px" height="64px" viewBox="0 0 64 64" enable-background="new 0 0 64 64" xml:space="preserve">
<line fill="none" stroke="#000000" stroke-width="7.6277" stroke-linecap="round" stroke-linejoin="round" stroke-miterlimit="10" x1="7.698" y1="52.667" x2="54.365" y2="52.667"/>
<g>
	<path d="M19.906,32.267H9.74c-1.105,0-2,0.895-2,2v11.129c0,1.105,0.895,2,2,2h10.167c1.105,0,2-0.895,2-2V34.267
		C21.906,33.163,21.011,32.267,19.906,32.267z"/>
	<path d="M36.115,7.358H25.948c-1.105,0-2,0.895-2,2v36.038c0,1.105,0.895,2,2,2h10.167c1.105,0,2-0.895,2-2V9.358
		C38.115,8.253,37.219,7.358,36.115,7.358z"/>
	<path d="M52.323,22.104H42.156c-1.105,0-2,0.895-2,2v21.292c0,1.105,0.895,2,2,2h10.167c1.105,0,2-0.895,2-2V24.104
		C54.323,23,53.427,22.104,52.323,22.104z"/>
</g>
</svg>
