<?xml version="1.0" encoding="utf-8"?>
<!-- Generator: Adobe Illustrator 17.0.0, SVG Export Plug-In . SVG Version: 6.00 Build 0)  -->
<!DOCTYPE svg PUBLIC "-//W3C//DTD SVG 1.1//EN" "http://www.w3.org/Graphics/SVG/1.1/DTD/svg11.dtd">
<svg version="1.1" id="Capa_1" xmlns="http://www.w3.org/2000/svg" xmlns:xlink="http://www.w3.org/1999/xlink" x="0px" y="0px"
	 width="64px" height="64px" viewBox="0 0 64 64" enable-background="new 0 0 64 64" xml:space="preserve">
<path d="M43,5.833H19.5c-4.418,0-8,3.582-8,8V47c0,4.418,3.582,8,8,8H43c4.418,0,8-3.582,8-8V13.833C51,9.415,47.418,5.833,43,5.833
	z M19.5,14.833c0-0.552,0.448-1,1-1H42c0.552,0,1,0.448,1,1v6c0,0.553-0.448,1-1,1H20.5c-0.552,0-1-0.448-1-1V14.833z M43,29.417v2
	c0,0.552-0.448,1-1,1h-6c-0.552,0-1-0.448-1-1v-2c0-0.552,0.448-1,1-1h6C42.552,28.417,43,28.865,43,29.417z M27.036,47.132
	l-1.414,1.414c-0.39,0.391-1.024,0.391-1.414,0s-1.024-0.391-1.414,0s-1.023,0.391-1.414,0l-1.414-1.414
	c-0.391-0.39-0.391-1.023,0-1.414c0.391-0.39,0.391-1.024,0-1.414s-0.391-1.023,0-1.414l1.414-1.414c0.39-0.391,1.024-0.391,1.414,0
	s1.024,0.391,1.414,0s1.023-0.391,1.414,0l1.414,1.414c0.39,0.39,0.391,1.024,0,1.414s-0.391,1.023,0,1.414
	C27.427,46.108,27.427,46.741,27.036,47.132z M27.5,31.417c0,0.552-0.448,1-1,1s-1,0.448-1,1s-0.448,1-1,1h-2c-0.552,0-1-0.448-1-1
	s-0.448-1-1-1s-1-0.448-1-1v-2c0-0.552,0.448-1,1-1s1-0.448,1-1s0.448-1,1-1h2c0.552,0,1,0.448,1,1s0.448,1,1,1s1,0.447,1,1V31.417z
	 M42.824,48.83c-0.781,0.781-2.047,0.781-2.828,0c-0.19-0.19-0.334-0.408-0.431-0.642c-0.165-0.397-0.47-0.442-0.861-0.051
	l-0.408,0.408c-0.39,0.391-1.023,0.391-1.414,0l-1.414-1.414c-0.391-0.39-0.391-1.023,0-1.414l0.414-0.414
	c0.391-0.391,0.343-0.693-0.058-0.859c-0.401-0.166-0.999-0.755-1.154-1.285c-0.199-0.679-0.03-1.443,0.505-1.978
	c0.536-0.535,1.299-0.704,1.978-0.505c0.53,0.155,1.119,0.753,1.285,1.154s0.468,0.449,0.859,0.058l0.414-0.414
	c0.39-0.391,1.023-0.391,1.414,0l1.414,1.414c0.391,0.39,0.391,1.023,0,1.414l-0.408,0.408c-0.39,0.391-0.346,0.696,0.051,0.861
	c0.234,0.097,0.453,0.241,0.642,0.431C43.605,46.783,43.605,48.049,42.824,48.83z"/>
</svg>
