<?xml version="1.0" encoding="utf-8"?>
<!-- Generator: Adobe Illustrator 17.0.0, SVG Export Plug-In . SVG Version: 6.00 Build 0)  -->
<!DOCTYPE svg PUBLIC "-//W3C//DTD SVG 1.1//EN" "http://www.w3.org/Graphics/SVG/1.1/DTD/svg11.dtd">
<svg version="1.1" id="Capa_1" xmlns="http://www.w3.org/2000/svg" xmlns:xlink="http://www.w3.org/1999/xlink" x="0px" y="0px"
	 width="64px" height="64px" viewBox="0 0 64 64" enable-background="new 0 0 64 64" xml:space="preserve">
<g>
	<path fill="#1D1D1B" d="M46.511,16.859v2.597c0,2.414-1.964,4.378-4.378,4.378s-4.378-1.964-4.378-4.378V16.5H23.756v2.956
		c0,2.414-1.964,4.378-4.378,4.378S15,21.87,15,19.456v-2.53c-1.761,0.774-2.994,2.528-2.994,4.574v27.667c0,2.761,2.239,5,5,5
		h27.667c2.761,0,5-2.239,5-5V21.5C49.673,19.39,48.361,17.593,46.511,16.859z M45.594,49.672h-29.51V28h29.51V49.672z"/>
	<path fill="#1D1D1B" d="M19.378,21.834c1.314,0,2.378-1.065,2.378-2.378V16.5v-5.122c0-1.313-1.065-2.378-2.378-2.378
		C18.064,9,17,10.065,17,11.378v5.123v2.955C17,20.77,18.065,21.834,19.378,21.834z"/>
	<path fill="#1D1D1B" d="M42.133,21.834c1.314,0,2.378-1.065,2.378-2.378V16.5v-5.122c0-1.313-1.065-2.378-2.378-2.378
		s-2.378,1.065-2.378,2.378V16.5v2.956C39.755,20.77,40.82,21.834,42.133,21.834z"/>
	<path fill="#1D1D1B" d="M43.594,30h-25.51v17.672h25.51V30z M34.78,35.893l-4.681,8.495c-0.333,0.617-0.733,0.866-1.233,0.866
		c-0.683,0-1.316-0.417-1.316-1.15c0-0.216,0.1-0.565,0.233-0.799l4.331-7.596H27.65c-0.617,0-1.116-0.483-1.116-1.1
		c0-0.616,0.499-1.116,1.116-1.116h6.33c0.717,0,1.166,0.417,1.166,1.15C35.146,35.026,34.996,35.493,34.78,35.893z"/>
</g>
</svg>
