<?xml version="1.0" encoding="utf-8"?>
<!-- Generator: Adobe Illustrator 17.0.0, SVG Export Plug-In . SVG Version: 6.00 Build 0)  -->
<!DOCTYPE svg PUBLIC "-//W3C//DTD SVG 1.1//EN" "http://www.w3.org/Graphics/SVG/1.1/DTD/svg11.dtd">
<svg version="1.1" id="Capa_1" xmlns="http://www.w3.org/2000/svg" xmlns:xlink="http://www.w3.org/1999/xlink" x="0px" y="0px"
	 width="64px" height="64px" viewBox="0 0 64 64" enable-background="new 0 0 64 64" xml:space="preserve">
<path d="M47.594,57.336H14.875c-4.418,0-8-3.582-8-8V16.617c0-4.418,3.582-8,8-8h32.719c4.418,0,8,3.582,8,8v32.719
	C55.594,53.754,52.012,57.336,47.594,57.336z"/>
<g>
	<path fill="#FFFFFF" d="M18.712,18.129c-1.956,0-3.542-1.791-3.542-4V8.333c0-2.209,1.586-4,3.542-4s3.542,1.791,3.542,4v5.796
		C22.253,16.338,20.668,18.129,18.712,18.129z"/>
	<path fill="#FFFFFF" d="M43.758,18.129c-1.956,0-3.542-1.791-3.542-4V8.333c0-2.209,1.586-4,3.542-4c1.956,0,3.542,1.791,3.542,4
		v5.796C47.299,16.338,45.714,18.129,43.758,18.129z"/>
</g>
<path fill="#FFFFFF" d="M43.721,49H17.423c-1.657,0-3-1.343-3-3V25.333c0-1.657,1.343-3,3-3h26.298c1.657,0,3,1.343,3,3V46
	C46.721,47.657,45.378,49,43.721,49z"/>
<g>
	<path d="M20.235,28.279c0.572-0.688,1.291-1.224,2.158-1.609c0.867-0.384,1.864-0.576,2.99-0.576c0.858,0,1.676,0.134,2.453,0.402
		c0.778,0.268,1.461,0.653,2.051,1.153c0.59,0.501,1.059,1.118,1.408,1.85c0.348,0.733,0.523,1.555,0.523,2.467
		c0,0.947-0.152,1.761-0.456,2.44c-0.304,0.679-0.706,1.283-1.207,1.81s-1.068,1.005-1.702,1.434
		c-0.635,0.429-1.274,0.854-1.917,1.274c-0.643,0.42-1.269,0.871-1.877,1.354c-0.306,0.243-0.593,0.506-0.863,0.789
		c-0.445,0.468,0.15,0.9,1.254,0.9h4.875c1.105,0,2,0.732,2,1.636c0,0.903-0.895,1.636-2,1.636h-9.782
		c-1.105,0-2.018-0.653-1.896-1.443c0.078-0.506,0.2-0.973,0.366-1.399c0.312-0.804,0.737-1.524,1.274-2.158
		c0.536-0.634,1.166-1.22,1.89-1.756c0.724-0.536,1.488-1.082,2.293-1.636c0.411-0.286,0.849-0.576,1.314-0.871
		c0.464-0.295,0.889-0.621,1.274-0.979c0.384-0.358,0.706-0.76,0.965-1.207c0.259-0.447,0.389-0.956,0.389-1.528
		c0-0.912-0.264-1.622-0.791-2.132c-0.527-0.51-1.202-0.764-2.024-0.764c-0.554,0-1.024,0.13-1.408,0.389
		c-0.385,0.259-0.693,0.599-0.925,1.019c-0.232,0.42-0.398,0.885-0.496,1.394c-0.049,0.253-0.085,0.504-0.11,0.755
		c-0.041,0.419-0.854,0.76-1.861,0.76s-1.862-0.681-1.762-1.511c0.062-0.513,0.167-1.006,0.314-1.479
		C19.234,29.772,19.663,28.968,20.235,28.279z"/>
</g>
<g>
	<path d="M39.193,43.239v-8.174c0-1.105-0.895-2-2-2h-0.719c-1.105,0-2-0.642-2-1.434c0-0.792,0.432-1.417,0.962-1.457
		c0.324-0.024,0.642-0.066,0.955-0.125c0.617-0.116,1.171-0.322,1.663-0.617c0.491-0.295,0.907-0.684,1.247-1.166
		c0.179-0.254,0.325-0.54,0.44-0.859c0.181-0.503,0.909-0.938,1.746-0.938c0.837,0,1.515,0.895,1.515,2v14.77
		c0,1.105-0.852,2-1.904,2C40.045,45.239,39.193,44.344,39.193,43.239z"/>
</g>
</svg>
