<?xml version="1.0" encoding="utf-8"?>
<!-- Generator: Adobe Illustrator 17.0.0, SVG Export Plug-In . SVG Version: 6.00 Build 0)  -->
<!DOCTYPE svg PUBLIC "-//W3C//DTD SVG 1.1//EN" "http://www.w3.org/Graphics/SVG/1.1/DTD/svg11.dtd">
<svg version="1.1" id="Capa_1" xmlns="http://www.w3.org/2000/svg" xmlns:xlink="http://www.w3.org/1999/xlink" x="0px" y="0px"
	 width="64px" height="64px" viewBox="0 0 64 64" enable-background="new 0 0 64 64" xml:space="preserve">
<path fill="#1D1D1B" d="M53.75,17.25H7.5c-1.105,0-2,0.895-2,2V45.5c0,1.105,0.895,2,2,2h46.25c1.105,0,2-0.895,2-2V19.25
	C55.75,18.145,54.855,17.25,53.75,17.25z M29,22.25h19.75c1.105,0,2,0.672,2,1.5s-0.895,1.5-2,1.5H29c-1.105,0-2-0.672-2-1.5
	S27.895,22.25,29,22.25z M22.25,41.5H11.5c-1.105,0-2-0.616-2-1.375s0.895-1.375,2-1.375h10.75c1.105,0,2,0.616,2,1.375
	S23.355,41.5,22.25,41.5z M24.25,34.25c0,1.105-0.895,2-2,2H11.5c-1.105,0-2-0.895-2-2V23.5c0-1.105,0.895-2,2-2h10.75
	c1.105,0,2,0.895,2,2V34.25z M29,29.25h19.75c1.105,0,2,0.672,2,1.5s-0.895,1.5-2,1.5H29c-1.105,0-2-0.672-2-1.5
	S27.895,29.25,29,29.25z M49,39H29.25c-1.105,0-2-0.672-2-1.5s0.895-1.5,2-1.5H49c1.105,0,2,0.672,2,1.5S50.105,39,49,39z"/>
</svg>
