<?xml version="1.0" encoding="utf-8"?>
<!-- Generator: Adobe Illustrator 17.0.0, SVG Export Plug-In . SVG Version: 6.00 Build 0)  -->
<!DOCTYPE svg PUBLIC "-//W3C//DTD SVG 1.1//EN" "http://www.w3.org/Graphics/SVG/1.1/DTD/svg11.dtd">
<svg version="1.1" id="Capa_1" xmlns="http://www.w3.org/2000/svg" xmlns:xlink="http://www.w3.org/1999/xlink" x="0px" y="0px"
	 width="64px" height="64px" viewBox="0 0 64 64" enable-background="new 0 0 64 64" xml:space="preserve">
<path d="M13.167,47c0,4.418,3.582,8,8,8h18c4.418,0,8-3.582,8-8V23.167h-34V47z"/>
<path d="M39.167,12.167h-18c-4.418,0-8,3.582-8,8h34C47.167,15.748,43.585,12.167,39.167,12.167z"/>
<path fill="#FFFFFF" d="M37,17.167H23.167c-1.105,0-2-0.895-2-2v-3c0-1.105,0.895-2,2-2H37c1.105,0,2,0.895,2,2v3
	C39,16.271,38.105,17.167,37,17.167z"/>
<path d="M35.167,8.833H24.833c-1.105,0-2,0.895-2,2v2.5c0,1.105,0.895,2,2,2h10.333c1.105,0,2-0.895,2-2v-2.5
	C37.167,9.729,36.271,8.833,35.167,8.833z"/>
<circle cx="30" cy="9.167" r="3.333"/>
<circle fill="#FFFFFF" cx="30" cy="9.167" r="1.167"/>
</svg>
