<?xml version="1.0" encoding="utf-8"?>
<!-- Generator: Adobe Illustrator 17.0.0, SVG Export Plug-In . SVG Version: 6.00 Build 0)  -->
<!DOCTYPE svg PUBLIC "-//W3C//DTD SVG 1.1//EN" "http://www.w3.org/Graphics/SVG/1.1/DTD/svg11.dtd">
<svg version="1.1" id="Capa_1" xmlns="http://www.w3.org/2000/svg" xmlns:xlink="http://www.w3.org/1999/xlink" x="0px" y="0px"
	 width="64px" height="64px" viewBox="0 0 64 64" enable-background="new 0 0 64 64" xml:space="preserve">
<path d="M58.883,35.255c0-6.787-5.502-12.289-12.289-12.289c-0.341,0-0.677,0.024-1.011,0.051c0.002-0.083,0.013-0.164,0.013-0.247
	c0-5.931-4.808-10.739-10.739-10.739c-4.48,0-8.315,2.744-9.926,6.642c-1.549-0.547-3.208-0.86-4.944-0.86
	c-8.213,0-14.87,6.658-14.87,14.87c0,8.212,6.658,14.87,14.87,14.87c0.256,0,0.505-0.025,0.757-0.038v0.038h26.366v-0.036
	C53.656,47.245,58.883,41.868,58.883,35.255z"/>
</svg>
