<?xml version="1.0" encoding="utf-8"?>
<!-- Generator: Adobe Illustrator 17.0.0, SVG Export Plug-In . SVG Version: 6.00 Build 0)  -->
<!DOCTYPE svg PUBLIC "-//W3C//DTD SVG 1.1//EN" "http://www.w3.org/Graphics/SVG/1.1/DTD/svg11.dtd">
<svg version="1.1" id="Capa_1" xmlns="http://www.w3.org/2000/svg" xmlns:xlink="http://www.w3.org/1999/xlink" x="0px" y="0px"
	 width="64px" height="64px" viewBox="0 0 64 64" enable-background="new 0 0 64 64" xml:space="preserve">
<path fill="#1D1D1B" d="M51.25,12.667c1.657,0,3,1.343,3,3v22.206c0,1.657-1.343,3-3,3H29.925c-1.657,0-3.652,1.174-4.456,2.623
	l-3.264,5.881C21.402,50.826,20.078,52,19.25,52s-1.606-1.339-1.737-2.991l-0.408-5.147c-0.131-1.652-1.327-2.991-2.671-2.991
	S12,39.528,12,37.871V15.667c0-1.657,1.343-3,3-3H51.25 M51.25,5.667H15c-5.514,0-10,4.486-10,10v22.206
	c0,3.952,2.174,7.376,5.321,8.999l0.213,2.691C10.968,55.031,14.634,59,19.25,59c4.144,0,7.406-3.217,9.076-6.227l2.72-4.901H51.25
	c5.514,0,10-4.486,10-10V15.667C61.25,10.153,56.764,5.667,51.25,5.667L51.25,5.667z M50.75,20.75c0-1.657-1.343-3-3-3H18
	c-1.657,0-3,1.343-3,3s1.343,3,3,3h29.75C49.407,23.75,50.75,22.407,50.75,20.75z M37.125,31.333c0-1.657-1.343-3-3-3H18
	c-1.657,0-3,1.343-3,3c0,1.657,1.343,3,3,3h16.125C35.782,34.333,37.125,32.99,37.125,31.333z"/>
</svg>
