<?xml version="1.0" encoding="utf-8"?>
<!-- Generator: Adobe Illustrator 17.0.0, SVG Export Plug-In . SVG Version: 6.00 Build 0)  -->
<!DOCTYPE svg PUBLIC "-//W3C//DTD SVG 1.1//EN" "http://www.w3.org/Graphics/SVG/1.1/DTD/svg11.dtd">
<svg version="1.1" id="Capa_1" xmlns="http://www.w3.org/2000/svg" xmlns:xlink="http://www.w3.org/1999/xlink" x="0px" y="0px"
	 width="64px" height="64px" viewBox="0 0 64 64" enable-background="new 0 0 64 64" xml:space="preserve">
<g>
	<path d="M31.778,11.904c10.293,0,18.667,8.374,18.667,18.667s-8.374,18.667-18.667,18.667s-18.667-8.374-18.667-18.667
		S21.485,11.904,31.778,11.904 M31.778,5.904c-13.623,0-24.667,11.044-24.667,24.667s11.044,24.667,24.667,24.667
		s24.667-11.044,24.667-24.667S45.401,5.904,31.778,5.904L31.778,5.904z"/>
</g>
<g>
	<path d="M42.96,46.322c-0.349,0-0.708-0.034-1.069-0.1L26.752,43.43c-1.791-0.33-3.067-1.319-3.501-2.714
		c-0.151-0.487-0.19-0.991-0.122-1.496c-0.171,0.022-0.331,0.032-0.476,0.032l0,0c-1.412,0-3.238-0.957-3.735-3.655l-2.792-15.139
		c-0.286-1.554,0.045-2.996,0.933-4.062c0.846-1.017,2.103-1.576,3.537-1.576c0.349,0,0.708,0.034,1.069,0.1l15.139,2.792
		c1.791,0.33,3.066,1.319,3.5,2.713c0.152,0.487,0.19,0.992,0.122,1.498c0.172-0.023,0.331-0.032,0.477-0.032
		c1.411,0,3.237,0.957,3.735,3.654l2.792,15.141c0.286,1.553-0.045,2.995-0.933,4.062C45.651,45.763,44.395,46.322,42.96,46.322z"/>
	<path fill="#FFFFFF" d="M20.596,16.819c0.225,0,0.461,0.022,0.706,0.067l15.14,2.792c2.172,0.401,2.667,1.992,1.105,3.554
		L24.439,36.34c-0.616,0.616-1.236,0.912-1.785,0.912c-0.846,0-1.526-0.7-1.768-2.017l-2.792-15.14
		C17.738,18.167,18.828,16.819,20.596,16.819 M40.902,23.89c0.846,0,1.526,0.7,1.768,2.017l2.792,15.14
		c0.355,1.927-0.735,3.275-2.502,3.275c-0.225,0-0.461-0.022-0.706-0.067l-15.14-2.792c-2.173-0.401-2.667-1.992-1.105-3.554
		l13.108-13.108C39.732,24.186,40.352,23.89,40.902,23.89 M20.596,12.819c-2.01,0-3.859,0.837-5.074,2.297
		c-1.274,1.531-1.758,3.556-1.362,5.704l2.792,15.14c0.544,2.95,2.391,4.585,4.32,5.106c0.021,0.082,0.045,0.163,0.07,0.244
		c0.662,2.128,2.501,3.618,5.047,4.087l15.14,2.792c0.48,0.088,0.961,0.133,1.431,0.133c2.009,0,3.859-0.837,5.074-2.297
		c1.274-1.531,1.758-3.556,1.362-5.704l-2.792-15.14c-0.544-2.95-2.391-4.585-4.32-5.106c-0.021-0.082-0.045-0.163-0.07-0.244
		c-0.662-2.128-2.501-3.618-5.047-4.087l-15.14-2.792C21.547,12.864,21.065,12.819,20.596,12.819L20.596,12.819z"/>
</g>
<g>
	<path d="M31.777,34.667c-2.259,0-4.097-1.837-4.097-4.097s1.838-4.097,4.097-4.097s4.097,1.837,4.097,4.097
		S34.036,34.667,31.777,34.667z"/>
	<path fill="#FFFFFF" d="M31.778,27.821c1.519,0,2.75,1.231,2.75,2.75c0,1.519-1.231,2.75-2.75,2.75s-2.75-1.231-2.75-2.75
		C29.028,29.052,30.259,27.821,31.778,27.821 M31.778,25.127c-3.002,0-5.444,2.442-5.444,5.444s2.442,5.444,5.444,5.444
		s5.444-2.442,5.444-5.444S34.779,25.127,31.778,25.127L31.778,25.127z"/>
</g>
</svg>
