<?xml version="1.0" encoding="utf-8"?>
<!-- Generator: Adobe Illustrator 17.0.0, SVG Export Plug-In . SVG Version: 6.00 Build 0)  -->
<!DOCTYPE svg PUBLIC "-//W3C//DTD SVG 1.1//EN" "http://www.w3.org/Graphics/SVG/1.1/DTD/svg11.dtd">
<svg version="1.1" id="Capa_1" xmlns="http://www.w3.org/2000/svg" xmlns:xlink="http://www.w3.org/1999/xlink" x="0px" y="0px"
	 width="64px" height="64px" viewBox="0 0 64 64" enable-background="new 0 0 64 64" xml:space="preserve">
<path d="M57.886,30.399c-1.431-2.866-4.865-6.241-7.12-7.553c-1.439-0.838-2.925-1.419-4.373-1.732
	c-1.252-0.27-2.298-0.288-2.298-0.31c0-0.014-0.407-0.026-1.025-0.034c-0.567-0.007-1.028-0.304-1.028-0.671
	s-2.595-0.664-5.797-0.664h-8.261c-3.202,0-5.797,0.298-5.797,0.666c0,0.368-0.33,0.667-0.737,0.675
	c-0.453,0.008-0.736,0.019-0.736,0.032c0,0.024-1.047-0.017-2.31,0.196c-2.922,0.492-6.043,2.106-8.665,4.728
	C5.321,30.15,3.749,35.995,5.61,39.9c0.551,1.156,2.059,2.665,3.215,3.215c3.905,1.861,9.75,0.289,14.168-4.129
	c0.315-0.315,0.614-0.637,0.899-0.965c0.478-0.55,1.868-1.025,3.148-1.025h10.148c1.281,0,2.671,0.475,3.148,1.025
	c0.285,0.328,0.585,0.65,0.899,0.965c4.418,4.418,10.263,5.99,14.168,4.129c1.156-0.551,2.665-2.059,3.215-3.215
	C59.871,37.27,59.567,33.76,57.886,30.399z M24.373,29.234h-2.88v2.881h-2.066v-2.881h-2.88v-2.065h2.88v-2.88h2.066v2.88h2.88
	V29.234z M28.624,29.796c-0.841,0-1.522-0.681-1.522-1.522s0.681-1.522,1.522-1.522s1.522,0.681,1.522,1.522
	S29.465,29.796,28.624,29.796z M36.305,29.796c-0.841,0-1.522-0.681-1.522-1.522s0.681-1.522,1.522-1.522s1.522,0.681,1.522,1.522
	S37.146,29.796,36.305,29.796z M45.963,34.469c-2.801,0-5.072-2.271-5.072-5.072c0-2.801,2.271-5.072,5.072-5.072
	s5.072,2.271,5.072,5.072C51.035,32.198,48.764,34.469,45.963,34.469z M49.305,29.397c0,1.846-1.496,3.342-3.342,3.342
	c-1.846,0-3.342-1.496-3.342-3.342c0-1.846,1.496-3.342,3.342-3.342C47.809,26.055,49.305,27.551,49.305,29.397z"/>
</svg>
