<?xml version="1.0" encoding="utf-8"?>
<!-- Generator: Adobe Illustrator 17.0.0, SVG Export Plug-In . SVG Version: 6.00 Build 0)  -->
<!DOCTYPE svg PUBLIC "-//W3C//DTD SVG 1.1//EN" "http://www.w3.org/Graphics/SVG/1.1/DTD/svg11.dtd">
<svg version="1.1" id="Capa_1" xmlns="http://www.w3.org/2000/svg" xmlns:xlink="http://www.w3.org/1999/xlink" x="0px" y="0px"
	 width="64px" height="64px" viewBox="0 0 64 64" enable-background="new 0 0 64 64" xml:space="preserve">
<path d="M49.722,24.751h-6.529c-1.902,0-3.444-1.542-3.444-3.444v-6.529c0-1.902-1.542-3.444-3.444-3.444h-8.61
	c-1.902,0-3.444,1.542-3.444,3.444v6.529c0,1.902-1.542,3.444-3.444,3.444h-6.529c-1.902,0-3.444,1.542-3.444,3.444v8.61
	c0,1.902,1.542,3.444,3.444,3.444h6.529c1.902,0,3.444,1.542,3.444,3.444v6.529c0,1.902,1.542,3.444,3.444,3.444h8.61
	c1.902,0,3.444-1.542,3.444-3.444v-6.529c0-1.902,1.542-3.444,3.444-3.444h6.529c1.902,0,3.444-1.542,3.444-3.444v-8.61
	C53.166,26.293,51.624,24.751,49.722,24.751z"/>
</svg>
