<?xml version="1.0" encoding="utf-8"?>
<!-- Generator: Adobe Illustrator 17.0.0, SVG Export Plug-In . SVG Version: 6.00 Build 0)  -->
<!DOCTYPE svg PUBLIC "-//W3C//DTD SVG 1.1//EN" "http://www.w3.org/Graphics/SVG/1.1/DTD/svg11.dtd">
<svg version="1.1" id="Capa_1" xmlns="http://www.w3.org/2000/svg" xmlns:xlink="http://www.w3.org/1999/xlink" x="0px" y="0px"
	 width="64px" height="64px" viewBox="0 0 64 64" enable-background="new 0 0 64 64" xml:space="preserve">
<path fill="#1D1D1B" d="M47.165,43.041c9.065-9.103,9.131-12.984,0.453-21.662c-0.14-0.14-0.292-0.262-0.451-0.369v-1.927
	c0-0.21-0.038-0.407-0.062-0.609c-0.641-5.381-9.649-7.808-18.605-7.808c-8.956,0-17.964,2.427-18.605,7.809
	c-0.024,0.202-0.062,0.398-0.062,0.608V43c0,0.086,0.004,0.172,0.012,0.257c-0.008,0.108-0.012,0.218-0.012,0.326
	C9.833,49.397,19.208,52,28.5,52c9.292,0,18.667-2.603,18.667-8.417c0-0.107-0.004-0.215-0.011-0.323
	C47.162,43.188,47.164,43.115,47.165,43.041z M15.833,42.368V25.525C19.321,26.864,23.918,27.5,28.5,27.5
	c4.582,0,9.179-0.636,12.667-1.975v16.731c-0.091,0.354-0.116,0.722-0.074,1.087C40.013,44.348,35.579,46,28.5,46
	c-7.088,0-11.524-1.657-12.597-2.661C15.935,43.014,15.909,42.686,15.833,42.368z M28.5,16.666c6.538,0,10.819,1.41,12.287,2.417
	C39.319,20.09,35.038,21.5,28.5,21.5s-10.82-1.41-12.287-2.417C17.68,18.076,21.962,16.666,28.5,16.666z M48.023,31.984
	c-0.018,0.545-0.339,1.231-0.856,2.005v-4.085C47.713,30.707,48.042,31.421,48.023,31.984z"/>
</svg>
