<?xml version="1.0" encoding="utf-8"?>
<!-- Generator: Adobe Illustrator 17.0.0, SVG Export Plug-In . SVG Version: 6.00 Build 0)  -->
<!DOCTYPE svg PUBLIC "-//W3C//DTD SVG 1.1//EN" "http://www.w3.org/Graphics/SVG/1.1/DTD/svg11.dtd">
<svg version="1.1" id="Capa_1" xmlns="http://www.w3.org/2000/svg" xmlns:xlink="http://www.w3.org/1999/xlink" x="0px" y="0px"
	 width="64px" height="64px" viewBox="0 0 64 64" enable-background="new 0 0 64 64" xml:space="preserve">
<path d="M40.833,58.5h-19.5c-4.418,0-8-3.582-8-8V17.333c0-4.418,3.582-8,8-8h19.5c4.418,0,8,3.582,8,8V50.5
	C48.833,54.918,45.252,58.5,40.833,58.5z"/>
<path fill="#FFFFFF" d="M49.333,22.5H38.167c-2.209,0-4-1.791-4-4v-11c0-2.209,1.791-4,4-4h11.167c2.209,0,4,1.791,4,4v11
	C53.333,20.709,51.542,22.5,49.333,22.5z"/>
<path d="M36.959,12.18v4.929c0,1.597,1.294,2.891,2.891,2.891h5.822c1.525,0,2.762-1.185,2.87-2.683l-9.769-7.815
	C37.71,9.929,36.959,10.965,36.959,12.18z"/>
</svg>
