<?xml version="1.0" encoding="utf-8"?>
<!-- Generator: Adobe Illustrator 17.0.0, SVG Export Plug-In . SVG Version: 6.00 Build 0)  -->
<!DOCTYPE svg PUBLIC "-//W3C//DTD SVG 1.1//EN" "http://www.w3.org/Graphics/SVG/1.1/DTD/svg11.dtd">
<svg version="1.1" id="Capa_1" xmlns="http://www.w3.org/2000/svg" xmlns:xlink="http://www.w3.org/1999/xlink" x="0px" y="0px"
	 width="64px" height="64px" viewBox="0 0 64 64" enable-background="new 0 0 64 64" xml:space="preserve">
<path fill="#1D1D1B" d="M45.875,18h-8.013c-0.637-1.426-3.411-2.5-6.737-2.5s-6.1,1.074-6.737,2.5h-8.013c-5.523,0-10,4.477-10,10
	v11.5c0,5.523,4.477,10,10,10h29.5c5.523,0,10-4.477,10-10V28C55.875,22.477,51.398,18,45.875,18z M31.375,44.75
	c-6.075,0-11-4.925-11-11c0-1.145,0.176-2.25,0.501-3.288c-2.028-0.192-3.626-1.884-3.626-3.962c0-2.206,1.794-4,4-4
	c1.626,0,3.022,0.978,3.647,2.374c1.818-1.33,4.053-2.124,6.478-2.124c6.075,0,11,4.925,11,11S37.45,44.75,31.375,44.75z
	 M35.625,33.75c0,2.347-1.903,4.25-4.25,4.25s-4.25-1.903-4.25-4.25s1.903-4.25,4.25-4.25S35.625,31.403,35.625,33.75z
	 M24.077,25.535c0.104,0.304,0.173,0.625,0.173,0.965c0,1.657-1.343,3-3,3c-0.007,0-0.014-0.002-0.021-0.002
	c-1.647-0.012-2.979-1.348-2.979-2.998c0-1.657,1.343-3,3-3C22.567,23.5,23.674,24.354,24.077,25.535z"/>
</svg>
