<?xml version="1.0" encoding="utf-8"?>
<!-- Generator: Adobe Illustrator 17.0.0, SVG Export Plug-In . SVG Version: 6.00 Build 0)  -->
<!DOCTYPE svg PUBLIC "-//W3C//DTD SVG 1.1//EN" "http://www.w3.org/Graphics/SVG/1.1/DTD/svg11.dtd">
<svg version="1.1" id="Capa_1" xmlns="http://www.w3.org/2000/svg" xmlns:xlink="http://www.w3.org/1999/xlink" x="0px" y="0px"
	 width="64px" height="64px" viewBox="0 0 64 64" enable-background="new 0 0 64 64" xml:space="preserve">
<g>
	<path d="M13.814,13.746v8.655c0,0,0,0.45,0,1.005s0.013,1.005,0.029,1.005s1.315,1.283,3.449,1.852
		c3.087,0.823,7.959,1.355,13.448,1.355c5.489,0,10.361-0.531,13.448-1.355c2.135-0.569,3.433-1.852,3.449-1.852
		s0.029-0.45,0.029-1.005v-1.005v-8.655c0-1.899-7.578-3.439-16.926-3.439C21.392,10.307,13.814,11.847,13.814,13.746z"/>
	<path d="M17.292,31.263c-2.135-0.569-3.433-1.852-3.449-1.852s-0.029,1.791-0.029,4v0.655c0,2.209,0.013,4,0.029,4
		s1.315,1.283,3.449,1.852c3.087,0.823,7.959,1.355,13.448,1.355c5.489,0,10.361-0.531,13.448-1.355
		c2.135-0.569,3.433-1.852,3.449-1.852s0.029-1.791,0.029-4v-0.655c0-2.209-0.013-4-0.029-4s-1.315,1.283-3.449,1.852
		c-3.087,0.823-7.959,1.355-13.448,1.355C25.251,32.617,20.38,32.086,17.292,31.263z"/>
	<path d="M17.292,44.4c-2.135-0.569-3.433-1.852-3.449-1.852s-0.029,1.791-0.029,4v0.655c0,2.209,0.013,4,0.029,4
		s1.315,1.283,3.449,1.852c3.087,0.823,7.959,1.355,13.448,1.355c5.489,0,10.361-0.531,13.448-1.355
		c2.135-0.569,3.433-1.852,3.449-1.852s0.029-1.791,0.029-4v-0.655c0-2.209-0.013-4-0.029-4s-1.315,1.283-3.449,1.852
		c-3.087,0.823-7.959,1.355-13.448,1.355C25.251,45.754,20.38,45.223,17.292,44.4z"/>
</g>
</svg>
