<?xml version="1.0" encoding="utf-8"?>
<!-- Generator: Adobe Illustrator 17.0.0, SVG Export Plug-In . SVG Version: 6.00 Build 0)  -->
<!DOCTYPE svg PUBLIC "-//W3C//DTD SVG 1.1//EN" "http://www.w3.org/Graphics/SVG/1.1/DTD/svg11.dtd">
<svg version="1.1" id="Capa_1" xmlns="http://www.w3.org/2000/svg" xmlns:xlink="http://www.w3.org/1999/xlink" x="0px" y="0px"
	 width="64px" height="64px" viewBox="0 0 64 64" enable-background="new 0 0 64 64" xml:space="preserve">
<path d="M48.837,10.326v20.427c0,1.105-0.895,2-2,2H17.379c-1.105,0-2-0.895-2-2V10.298c0-1.105-0.909-2.026-1.98-1.753
	c-3.461,0.881-6.02,4.018-6.02,7.753v32.909c0,3.662,2.462,6.743,5.819,7.691c1.063,0.3,1.972-0.351,1.972-1.152
	s0.895-1.451,2-1.451h5c1.105,0,2,0.652,2,1.456s0.895,1.456,2,1.456h22.117c4.418,0,8-3.582,8-8V16.298
	c0-3.541-2.303-6.539-5.492-7.59C49.747,8.363,48.837,9.221,48.837,10.326z M46.504,49.462H17.712c-1.104,0-2-0.896-2-2s0.896-2,2-2
	h28.792c1.104,0,2,0.896,2,2S47.608,49.462,46.504,49.462z M46.504,41.708H17.712c-1.104,0-2-0.896-2-2s0.896-2,2-2h28.792
	c1.104,0,2,0.896,2,2S47.608,41.708,46.504,41.708z"/>
<path d="M42.171,8.462h-3.333c-1.105,0-2,0.895-2,2v15.333c0,1.105,0.895,2,2,2h3.333c1.105,0,2-0.895,2-2V10.462
	C44.171,9.358,43.275,8.462,42.171,8.462z"/>
</svg>
