<?xml version="1.0" encoding="utf-8"?>
<!-- Generator: Adobe Illustrator 17.0.0, SVG Export Plug-In . SVG Version: 6.00 Build 0)  -->
<!DOCTYPE svg PUBLIC "-//W3C//DTD SVG 1.1//EN" "http://www.w3.org/Graphics/SVG/1.1/DTD/svg11.dtd">
<svg version="1.1" id="Capa_1" xmlns="http://www.w3.org/2000/svg" xmlns:xlink="http://www.w3.org/1999/xlink" x="0px" y="0px"
	 width="64px" height="64px" viewBox="0 0 64 64" enable-background="new 0 0 64 64" xml:space="preserve">
<g>
	<path d="M32.434,60.267C17.455,60.267,5.267,48.08,5.267,33.1S17.455,5.934,32.434,5.934S59.601,18.121,59.601,33.1
		S47.414,60.267,32.434,60.267z M32.434,12.934c-11.12,0-20.167,9.047-20.167,20.166c0,11.12,9.047,20.167,20.167,20.167
		S52.601,44.22,52.601,33.1C52.601,21.981,43.554,12.934,32.434,12.934z"/>
</g>
<g>
	<path d="M34.843,18.138c0,0,0,0.123,0,0.274s0.89,0.392,1.959,0.671c1.339,0.349,2.575,0.843,3.721,1.483
		c0.744,0.431,1.41,1.175,1.41,2.35c0,1.489-1.175,2.625-2.664,2.625c-0.47,0-0.939-0.118-1.37-0.353
		c-0.531-0.284-1.061-0.541-1.587-0.761c-0.897-0.376-1.665,0.324-1.665,1.429v1.954c0,1.105,0.87,2.222,1.913,2.586
		c4.591,1.602,6.587,3.951,6.587,7.835c0,3.776-2.495,6.391-6.337,7.396c-1.069,0.28-1.966,0.824-1.966,1.398v1.038
		c0,1.136-0.901,2.036-2.037,2.036s-2.036-0.9-2.036-2.036c0,0,0-0.474,0-1.058s-0.893-1.16-1.967-1.416
		c-2.052-0.488-3.991-1.311-5.75-2.384c-0.822-0.509-1.332-1.292-1.332-2.35c0-1.528,1.176-2.664,2.703-2.664
		c0.509,0,1.058,0.196,1.527,0.51c1.039,0.667,2.046,1.21,3.101,1.618c1.03,0.399,1.912-0.32,1.912-1.425v-2.229
		c0-1.105-0.868-2.222-1.913-2.582c-4.357-1.5-6.508-3.661-6.508-7.761c0-3.707,2.435-6.37,6.259-7.366
		c1.069-0.278,1.967-0.456,1.967-0.586v-0.235c0-1.136,0.9-2.037,2.036-2.037S34.843,17.002,34.843,18.138z M30.965,26.792v-1.288
		c0-1.105-0.977-1.981-1.853-1.308c-0.581,0.446-0.849,1.059-0.849,1.776c0,0.767,0.219,1.378,0.923,1.921
		C30.061,28.568,30.965,27.897,30.965,26.792z M34.647,37.647v1.444c0,1.105,0.97,1.976,1.865,1.329
		c0.608-0.44,0.916-1.068,0.916-1.875c0-0.817-0.266-1.462-0.997-2.014C35.55,35.865,34.647,36.542,34.647,37.647z"/>
</g>
</svg>
