<?xml version="1.0" encoding="utf-8"?>
<!-- Generator: Adobe Illustrator 17.0.0, SVG Export Plug-In . SVG Version: 6.00 Build 0)  -->
<!DOCTYPE svg PUBLIC "-//W3C//DTD SVG 1.1//EN" "http://www.w3.org/Graphics/SVG/1.1/DTD/svg11.dtd">
<svg version="1.1" id="Capa_1" xmlns="http://www.w3.org/2000/svg" xmlns:xlink="http://www.w3.org/1999/xlink" x="0px" y="0px"
	 width="64px" height="64px" viewBox="0 0 64 64" enable-background="new 0 0 64 64" xml:space="preserve">
<g>
	<path fill="#1D1D1B" d="M18.357,9.582L8.165,16.237c-1.387,0.906-1.464,2.48-0.17,3.515l5.837,4.675
		c1.293,1.036,3.485,1.17,4.894,0.299l10.236-6.321c1.41-0.87,1.521-2.437,0.249-3.499l-6.04-5.042
		C21.9,8.803,19.744,8.677,18.357,9.582z"/>
	<path fill="#1D1D1B" d="M8.165,36.367l10.192,6.654c1.387,0.906,3.543,0.779,4.815-0.282l6.04-5.042
		c1.272-1.062,1.16-2.628-0.25-3.499l-10.236-6.321c-1.41-0.87-3.601-0.737-4.894,0.299l-5.837,4.675
		C6.701,33.888,6.778,35.461,8.165,36.367z"/>
	<path fill="#1D1D1B" d="M33.818,37.697l6.041,5.042c1.272,1.062,3.428,1.188,4.815,0.282l10.191-6.654
		c1.387-0.906,1.464-2.48,0.17-3.515l-5.837-4.675c-1.293-1.036-3.484-1.17-4.894-0.299l-10.236,6.321
		C32.658,35.069,32.546,36.635,33.818,37.697z"/>
	<path fill="#1D1D1B" d="M54.866,16.237L44.674,9.582c-1.387-0.906-3.543-0.779-4.815,0.282l-6.041,5.042
		c-1.272,1.062-1.16,2.628,0.249,3.498l10.236,6.321c1.41,0.87,3.601,0.737,4.894-0.299l5.837-4.675
		C56.329,18.716,56.253,17.143,54.866,16.237z"/>
	<path fill="#1D1D1B" d="M29.238,39.602l-6.06,5.029c-1.275,1.058-3.331,1.248-4.593,0.424c-1.262-0.824-2.285-0.743-2.285,0.181
		s1.152,2.363,2.573,3.215l10.101,6.058c1.421,0.852,3.725,0.852,5.146,0l10.102-6.058c1.421-0.852,2.573-2.292,2.573-3.215
		s-1.023-1.004-2.284-0.181c-1.262,0.824-3.318,0.634-4.593-0.424l-6.061-5.029C32.58,38.544,30.513,38.544,29.238,39.602z"/>
</g>
</svg>
