<?xml version="1.0" encoding="utf-8"?>
<!-- Generator: Adobe Illustrator 17.0.0, SVG Export Plug-In . SVG Version: 6.00 Build 0)  -->
<!DOCTYPE svg PUBLIC "-//W3C//DTD SVG 1.1//EN" "http://www.w3.org/Graphics/SVG/1.1/DTD/svg11.dtd">
<svg version="1.1" id="Capa_1" xmlns="http://www.w3.org/2000/svg" xmlns:xlink="http://www.w3.org/1999/xlink" x="0px" y="0px"
	 width="64px" height="64px" viewBox="0 0 64 64" enable-background="new 0 0 64 64" xml:space="preserve">
<path d="M45.317,41.312c-2.983,2.983-6.663,4.852-10.521,5.612v7.408c0,2.209-1.791,4-4,4s-4-1.791-4-4v-7.408
	c-3.858-0.76-7.538-2.629-10.521-5.612c-1.562-1.562-1.562-4.095,0-5.656c1.562-1.562,4.095-1.562,5.657,0
	c4.888,4.888,12.841,4.886,17.729,0c1.561-1.562,4.096-1.562,5.656,0C46.88,37.218,46.88,39.751,45.317,41.312z M30.797,36.249
	c6.055,0,10.964-5.921,10.964-14.458S36.852,6.333,30.797,6.333s-10.964,6.921-10.964,15.458S24.742,36.249,30.797,36.249z"/>
</svg>
