<?xml version="1.0" encoding="utf-8"?>
<!-- Generator: Adobe Illustrator 17.0.0, SVG Export Plug-In . SVG Version: 6.00 Build 0)  -->
<!DOCTYPE svg PUBLIC "-//W3C//DTD SVG 1.1//EN" "http://www.w3.org/Graphics/SVG/1.1/DTD/svg11.dtd">
<svg version="1.1" id="Capa_1" xmlns="http://www.w3.org/2000/svg" xmlns:xlink="http://www.w3.org/1999/xlink" x="0px" y="0px"
	 width="64px" height="64px" viewBox="0 0 64 64" enable-background="new 0 0 64 64" xml:space="preserve">
<path d="M30.259,28.725L16.875,18.234C16.005,17.552,16.196,17,17.3,17h29.066c1.105,0,1.295,0.552,0.426,1.234L33.408,28.725
	C32.538,29.406,31.129,29.406,30.259,28.725z M10.674,18.353c-0.18-0.254-1.081-0.112-1.915,0.612C7.07,20.43,6,22.588,6,25v15
	c0,0.616,0.072,1.214,0.205,1.788c0.226,0.97,1.284,1.116,2.126,0.401L22.46,30.184c0.842-0.715,0.819-1.847-0.05-2.529
	L11.062,18.76C10.909,18.641,10.78,18.503,10.674,18.353z M41.481,27.48c-0.869,0.681-0.894,1.816-0.055,2.535l14,11.994
	c0.839,0.719,1.857,0.606,2.059-0.315c0.12-0.546,0.183-1.112,0.183-1.694V25c0-2.412-1.07-4.57-2.759-6.035
	c-0.834-0.724-1.735-0.866-1.915-0.612c-0.107,0.15-0.236,0.288-0.388,0.407L41.481,27.48z M32.544,34.358
	c-0.047,0.018-0.094,0.035-0.142,0.049c-0.183,0.054-0.37,0.091-0.561,0.092c-0.206-0.001-0.393-0.038-0.576-0.092
	c-0.048-0.014-0.094-0.031-0.142-0.049c-0.18-0.068-0.352-0.155-0.508-0.275c-0.015-0.01-0.954-0.745-1.844-1.442
	c-0.87-0.681-2.256-0.653-3.098,0.062L10.918,45.239c-0.842,0.715-0.795,1.841,0.236,2.236C12.038,47.814,12.997,48,14,48h35.667
	c1.071,0,2.091-0.213,3.023-0.597c1.021-0.421,1.055-1.565,0.217-2.284L38.214,32.532c-0.839-0.719-2.224-0.749-3.093-0.067
	l-2.041,1.599C32.896,34.203,32.723,34.289,32.544,34.358z"/>
</svg>
