<?xml version="1.0" encoding="utf-8"?>
<!-- Generator: Adobe Illustrator 17.0.0, SVG Export Plug-In . SVG Version: 6.00 Build 0)  -->
<!DOCTYPE svg PUBLIC "-//W3C//DTD SVG 1.1//EN" "http://www.w3.org/Graphics/SVG/1.1/DTD/svg11.dtd">
<svg version="1.1" id="Capa_1" xmlns="http://www.w3.org/2000/svg" xmlns:xlink="http://www.w3.org/1999/xlink" x="0px" y="0px"
	 width="64px" height="64px" viewBox="0 0 64 64" enable-background="new 0 0 64 64" xml:space="preserve">
<g>
	<path fill="#1D1D1B" d="M46.235,26.511v9.807c0,1.252-1.015,2.267-2.267,2.267H22.935c-1.252,0-2.57-0.969-2.943-2.163
		l-6.279-20.078c-0.374-1.195-1.65-1.855-2.84-1.488c-1.195,0.374-1.86,1.646-1.488,2.84l7.454,23.832
		c0.297,0.946,1.172,1.59,2.164,1.59h29.499c1.252,0,2.267-1.015,2.267-2.267v-14.34c0-1.252-1.015-2.267-2.267-2.267
		S46.235,25.259,46.235,26.511z"/>
	<circle fill="#1D1D1B" cx="22.663" cy="49.383" r="3.951"/>
	<circle fill="#1D1D1B" cx="43.47" cy="49.383" r="3.951"/>
	<path fill="#1D1D1B" d="M27.352,35.578H37.93c3.13,0,5.667-2.537,5.667-5.667V19.333c0-3.13-2.537-5.667-5.667-5.667H27.352
		c-3.13,0-5.667,2.537-5.667,5.667v10.578C21.686,33.041,24.223,35.578,27.352,35.578z"/>
</g>
</svg>
