<?xml version="1.0" encoding="utf-8"?>
<!-- Generator: Adobe Illustrator 17.0.0, SVG Export Plug-In . SVG Version: 6.00 Build 0)  -->
<!DOCTYPE svg PUBLIC "-//W3C//DTD SVG 1.1//EN" "http://www.w3.org/Graphics/SVG/1.1/DTD/svg11.dtd">
<svg version="1.1" id="Capa_1" xmlns="http://www.w3.org/2000/svg" xmlns:xlink="http://www.w3.org/1999/xlink" x="0px" y="0px"
	 width="64px" height="64px" viewBox="0 0 64 64" enable-background="new 0 0 64 64" xml:space="preserve">
<g>
	<path fill="#1D1D1B" d="M28.039,19.736c0.537-0.314,1.026-0.711,1.451-1.186c0.697-0.778,1.172-1.698,1.405-2.697
		c0.277-1.189-0.133-3.152-0.452-4.331l-0.413-1.531c-0.318-1.179-1.53-1.872-2.707-1.548c-1.177,0.324-1.869,1.54-1.545,2.718
		l0.272,0.991c0.324,1.177,0.617,2.459,0.497,2.833c-0.073,0.229-0.19,0.437-0.348,0.613c-0.337,0.376-0.837,0.582-1.408,0.582
		h-3.437c-0.572,0-1.071-0.206-1.408-0.582c-0.158-0.176-0.275-0.383-0.348-0.613c-0.12-0.374,0.174-1.656,0.497-2.833l0.272-0.991
		C20.692,9.983,20,8.767,18.823,8.443c-1.177-0.324-2.394,0.368-2.717,1.545l-0.913,3.321l-0.066,0.346
		c-0.2,1.833,0.343,3.571,1.529,4.894c0.427,0.476,0.917,0.874,1.455,1.188c0.9,0.525,1.818,1.677,1.903,2.895l0.556,7.921
		c0.085,1.218,0.084,3.192-0.003,4.41l-0.491,6.875c-0.087,1.218-1.023,2.363-1.939,2.894c-0.548,0.317-1.047,0.72-1.481,1.204
		c-0.697,0.778-1.173,1.7-1.405,2.699c-0.277,1.189,0.134,3.151,0.452,4.33l0.413,1.53c0.318,1.179,1.53,1.872,2.707,1.548
		c1.177-0.324,1.869-1.54,1.545-2.718l-0.272-0.99c-0.324-1.177-0.617-2.46-0.497-2.834c0.073-0.229,0.191-0.437,0.348-0.613
		c0.337-0.376,0.837-0.582,1.407-0.582h3.437c0.571,0,1.071,0.206,1.407,0.582c0.158,0.176,0.275,0.384,0.348,0.613
		c0.12,0.374-0.174,1.657-0.497,2.834l-0.272,0.99c-0.324,1.177,0.368,2.394,1.545,2.718c1.177,0.324,2.394-0.368,2.717-1.545
		l0.913-3.32l0.066-0.346c0.2-1.833-0.343-3.572-1.529-4.895c-0.435-0.485-0.936-0.889-1.486-1.207
		c-0.92-0.531-1.861-1.676-1.951-2.893l-0.468-6.319c-0.09-1.218-0.096-3.192-0.014-4.41l0.575-8.475
		C26.229,21.413,27.142,20.26,28.039,19.736z"/>
	<path fill="#1D1D1B" d="M36.843,12.588l1.105,15.105c0,1.341,0.597,2.541,1.54,3.351c0.926,0.795,1.96,1.96,1.96,3.181v21.836
		c0,0.611,0.495,1.105,1.105,1.105c0.61,0,1.105-0.494,1.105-1.105v-21.95c0-1.221,1.014-2.475,1.871-3.345
		c0.779-0.791,1.261-1.872,1.261-3.073l1.105-15.105c0-2.442-3.085-4.421-5.526-4.421C39.928,8.167,36.843,10.146,36.843,12.588z"/>
</g>
</svg>
