<?xml version="1.0" encoding="utf-8"?>
<!-- Generator: Adobe Illustrator 17.0.0, SVG Export Plug-In . SVG Version: 6.00 Build 0)  -->
<!DOCTYPE svg PUBLIC "-//W3C//DTD SVG 1.1//EN" "http://www.w3.org/Graphics/SVG/1.1/DTD/svg11.dtd">
<svg version="1.1" id="Capa_1" xmlns="http://www.w3.org/2000/svg" xmlns:xlink="http://www.w3.org/1999/xlink" x="0px" y="0px"
	 width="64px" height="64px" viewBox="0 0 64 64" enable-background="new 0 0 64 64" xml:space="preserve">
<path fill="#1D1D1B" d="M12.723,13.894c-0.006-0.103-0.01-0.206-0.01-0.31c0-4.373,3.545-7.917,7.917-7.917
	c1.848,0,3.546,0.633,4.891,1.694c2.168,1.711,3.028,3.809,3.488,3.633c0.271-0.103,0.564-0.161,0.872-0.161
	c0.452,0,0.874,0.122,1.238,0.333c0.619,0.36,1.276-1.512,3.3-3.39c1.411-1.309,3.3-2.109,5.378-2.109
	c4.373,0,7.917,3.545,7.917,7.917c0,0.104-0.004,0.207-0.01,0.31c-0.01,0.172-2.261,0.31-5.022,0.31H32.216h-0.304h-3.396h-0.971
	h-9.8C14.983,14.204,12.733,14.065,12.723,13.894z M50.874,16.87h-1.839H33.57h-0.304H29.87h-0.971h-14.8c0,0-1.429,0-3.193,0
	s-3.193,2.239-3.193,5v1.344c0,2.409,1.705,4.419,3.974,4.893V27.75c0-3.86,3.14-7,7-7h24.25c3.834,0,6.954,3.098,6.996,6.922
	c1.642-0.82,2.78-2.499,2.78-4.458V21.87C52.713,19.109,51.89,16.87,50.874,16.87z M27.672,53V28.214v-1.797
	c0-1.411,0.3-2.681,0.778-3.59c0.015-0.028,0.032-0.05,0.047-0.077h-9.811c-2.761,0-5,2.239-5,5v0.464V52c0,2.761,2.239,5,5,5
	h10.016c-0.069-0.101-0.135-0.208-0.198-0.322C27.996,55.764,27.672,54.461,27.672,53z M42.937,22.75H31.93
	c0.015,0.027,0.033,0.049,0.047,0.077c0.478,0.909,0.778,2.179,0.778,3.59v1.797V53c0,1.461-0.325,2.764-0.833,3.679
	c-0.063,0.114-0.129,0.221-0.198,0.321h11.213c2.761,0,5-2.239,5-5V28.191V27.75C47.937,24.989,45.698,22.75,42.937,22.75z"/>
</svg>
