<?xml version="1.0" encoding="utf-8"?>
<!-- Generator: Adobe Illustrator 17.0.0, SVG Export Plug-In . SVG Version: 6.00 Build 0)  -->
<!DOCTYPE svg PUBLIC "-//W3C//DTD SVG 1.1//EN" "http://www.w3.org/Graphics/SVG/1.1/DTD/svg11.dtd">
<svg version="1.1" id="Capa_1" xmlns="http://www.w3.org/2000/svg" xmlns:xlink="http://www.w3.org/1999/xlink" x="0px" y="0px"
	 width="64px" height="64px" viewBox="0 0 64 64" enable-background="new 0 0 64 64" xml:space="preserve">
<g>
	<path fill="#1D1D1B" d="M41.598,25.46c-0.64,0-1.28-0.244-1.768-0.732c-7.941-7.941-8.72-7.941-16.661,0
		c-0.976,0.977-2.56,0.977-3.535,0c-0.977-0.977-0.977-2.559,0-3.535c9.869-9.871,13.862-9.871,23.731,0
		c0.977,0.977,0.977,2.559,0,3.535C42.878,25.216,42.238,25.46,41.598,25.46z"/>
</g>
<g>
	<g>
		<path fill="#1D1D1B" d="M8.819,44.789l2.153-18.12c0.326-2.742,2.828-4.965,5.59-4.965h29.877c2.761,0,5.264,2.223,5.59,4.965
			l2.153,18.12c0.326,2.742-1.649,4.965-4.41,4.965H13.229C10.468,49.754,8.493,47.531,8.819,44.789z"/>
	</g>
	<g>
		<path fill="#FFFFFF" d="M50.55,22.704l2.505,21.085c0.326,2.742-1.649,4.965-4.41,4.965h-34.29c-2.761,0-4.736-2.223-4.41-4.965
			l1.915-16.12c0.326-2.742,2.828-4.965,5.59-4.965H50.55 M47.327,20.704H15.673c-2.761,0-5.264,2.223-5.59,4.965l-2.39,20.12
			c-0.326,2.742,1.649,4.965,4.41,4.965h38.794c2.761,0,4.736-2.223,4.41-4.965l-2.39-20.12
			C52.591,22.927,50.088,20.704,47.327,20.704z"/>
	</g>
</g>
</svg>
