<?xml version="1.0" encoding="utf-8"?>
<!-- Generator: Adobe Illustrator 17.0.0, SVG Export Plug-In . SVG Version: 6.00 Build 0)  -->
<!DOCTYPE svg PUBLIC "-//W3C//DTD SVG 1.1//EN" "http://www.w3.org/Graphics/SVG/1.1/DTD/svg11.dtd">
<svg version="1.1" id="Capa_1" xmlns="http://www.w3.org/2000/svg" xmlns:xlink="http://www.w3.org/1999/xlink" x="0px" y="0px"
	 width="64px" height="64px" viewBox="0 0 64 64" enable-background="new 0 0 64 64" xml:space="preserve">
<path d="M56.475,48.639c-0.684,0.684-1.579,1.025-2.475,1.025s-1.791-0.342-2.475-1.025c-11.106-11.106-29.181-11.108-40.287,0
	c-1.367,1.367-3.583,1.367-4.95,0c-1.367-1.366-1.367-3.583,0-4.949c7.038-7.038,16.321-10.489,25.565-10.367l4.561-10.071
	c-0.325-2.488-2.458-4.415-5.033-4.415c-2.799,0-5.076,2.277-5.076,5.076c0,1.933-1.567,3.5-3.5,3.5s-3.5-1.567-3.5-3.5
	c0-6.659,5.417-12.076,12.076-12.076c6.659,0,12.076,5.417,12.076,12.076c0,0.498-0.106,0.99-0.312,1.444l-3.994,8.82
	c6.352,1.416,12.39,4.58,17.323,9.514C57.842,45.056,57.842,47.272,56.475,48.639z"/>
</svg>
