<?xml version="1.0" encoding="utf-8"?>
<!-- Generator: Adobe Illustrator 17.0.0, SVG Export Plug-In . SVG Version: 6.00 Build 0)  -->
<!DOCTYPE svg PUBLIC "-//W3C//DTD SVG 1.1//EN" "http://www.w3.org/Graphics/SVG/1.1/DTD/svg11.dtd">
<svg version="1.1" id="Capa_1" xmlns="http://www.w3.org/2000/svg" xmlns:xlink="http://www.w3.org/1999/xlink" x="0px" y="0px"
	 width="64px" height="64px" viewBox="0 0 64 64" enable-background="new 0 0 64 64" xml:space="preserve">
<path d="M55.083,25.303L34.856,13.7c-1.916-1.099-5.023-1.099-6.939,0L7.69,25.303c-1.916,1.099-1.679,1.99,0.53,1.99h3.384
	c-0.031,0.287-0.05,0.578-0.05,0.873v17.07c0,4.418,3.582,8,8,8h2.327v-6.569c0-2.209,1.791-4,4-4h11.012c2.209,0,4,1.791,3.999,4
	v6.569h2.328c4.419,0,8-3.581,8-8v-17.07c0-0.295-0.019-0.586-0.05-0.873h3.383C56.762,27.293,56.999,26.402,55.083,25.303z
	 M31.387,35.613c-1.995,0-3.613-1.618-3.613-3.613s1.618-3.613,3.613-3.613C33.382,28.387,35,30.005,35,32
	S33.382,35.613,31.387,35.613z"/>
</svg>
