<?xml version="1.0" encoding="utf-8"?>
<!-- Generator: Adobe Illustrator 16.0.4, SVG Export Plug-In . SVG Version: 6.00 Build 0)  -->
<!DOCTYPE svg PUBLIC "-//W3C//DTD SVG 1.1//EN" "http://www.w3.org/Graphics/SVG/1.1/DTD/svg11.dtd">
<svg version="1.1" id="Capa_1" xmlns="http://www.w3.org/2000/svg" xmlns:xlink="http://www.w3.org/1999/xlink" x="0px" y="0px"
	 width="64px" height="64px" viewBox="0 0 64 64" enable-background="new 0 0 64 64" xml:space="preserve">
<path d="M49.761,12.279C39.92,2.438,23.42,2.983,12.907,13.496S1.85,40.508,11.69,50.35c9.84,9.84,26.341,9.295,36.853-1.218
	C59.057,38.619,59.602,22.12,49.761,12.279z M34.682,27.925l-4.374,16.228c-0.568,2.144-1.968,3.369-3.718,3.369
	c-2.231,0-3.412-1.621-2.668-4.375l4.374-16.229c0.568-2.144,1.968-3.366,3.718-3.366C34.244,23.551,35.426,25.168,34.682,27.925z
	 M37.7,18.17l-0.046,0.217c-0.393,1.881-2.186,3.063-4.285,3.063c-2.1,0-3.542-1.311-3.193-3.063l0.045-0.217
	c0.394-1.881,2.187-3.063,4.286-3.063C36.607,15.107,38.049,16.421,37.7,18.17z"/>
</svg>
