<?xml version="1.0" encoding="utf-8"?>
<!-- Generator: Adobe Illustrator 17.0.0, SVG Export Plug-In . SVG Version: 6.00 Build 0)  -->
<!DOCTYPE svg PUBLIC "-//W3C//DTD SVG 1.1//EN" "http://www.w3.org/Graphics/SVG/1.1/DTD/svg11.dtd">
<svg version="1.1" id="Capa_1" xmlns="http://www.w3.org/2000/svg" xmlns:xlink="http://www.w3.org/1999/xlink" x="0px" y="0px"
	 width="64px" height="64px" viewBox="0 0 64 64" enable-background="new 0 0 64 64" xml:space="preserve">
<path d="M23.565,20.838c1.794,0,3.481,0.699,4.75,1.967c1.269,1.269,1.967,2.955,1.967,4.75c0,1.794-0.699,3.481-1.967,4.75
	c-1.269,1.269-2.955,1.967-4.75,1.967c-1.794,0-3.481-0.699-4.75-1.967c-1.269-1.269-1.967-2.955-1.967-4.75
	c0-1.794,0.699-3.481,1.967-4.75C20.084,21.537,21.771,20.838,23.565,20.838 M23.565,13.829c-3.513,0-7.026,1.34-9.706,4.02
	c-5.36,5.36-5.36,14.051,0,19.412c2.68,2.68,6.193,4.02,9.706,4.02s7.026-1.34,9.706-4.02c5.36-5.36,5.36-14.051,0-19.412
	C30.591,15.169,27.078,13.829,23.565,13.829L23.565,13.829z"/>
<path d="M46.199,48.271l-1.918,1.918c-1.704,1.704-4.115,1.831-5.385,0.284L29.31,38.803c-1.271-1.547-1.181-3.921,0.201-5.302
	s3.755-1.471,5.302-0.201l11.669,9.585C48.03,44.157,47.903,46.568,46.199,48.271z"/>
</svg>
