<?xml version="1.0" encoding="utf-8"?>
<!-- Generator: Adobe Illustrator 17.0.0, SVG Export Plug-In . SVG Version: 6.00 Build 0)  -->
<!DOCTYPE svg PUBLIC "-//W3C//DTD SVG 1.1//EN" "http://www.w3.org/Graphics/SVG/1.1/DTD/svg11.dtd">
<svg version="1.1" id="Capa_1" xmlns="http://www.w3.org/2000/svg" xmlns:xlink="http://www.w3.org/1999/xlink" x="0px" y="0px"
	 width="64px" height="64px" viewBox="0 0 64 64" enable-background="new 0 0 64 64" xml:space="preserve">
<path fill="#1D1D1B" d="M38.044,16.9h-12.81c-0.214,0-0.424,0.015-0.633,0.032V6.631c0-1.933-1.567-3.5-3.5-3.5s-3.5,1.567-3.5,3.5
	v17.884c0,0.007-0.001,0.013-0.001,0.019V50.95c0,4.209,3.424,7.634,7.634,7.634h12.81c4.209,0,7.634-3.425,7.634-7.634V24.534
	C45.678,20.325,42.253,16.9,38.044,16.9z M38.678,50.95c0,0.35-0.284,0.634-0.634,0.634h-12.81c-0.35,0-0.634-0.284-0.634-0.634
	V33.053c0-0.003,0.001-0.006,0.001-0.01v-8.514c0.003-0.347,0.285-0.629,0.633-0.629h12.81c0.35,0,0.634,0.285,0.634,0.634V50.95z
	 M35.75,30.081c0,1.636-1.326,2.962-2.962,2.962h-2.326c-1.636,0-2.962-1.326-2.962-2.962s1.326-2.962,2.962-2.962h2.326
	C34.424,27.119,35.75,28.445,35.75,30.081z"/>
</svg>
