<?xml version="1.0" encoding="utf-8"?>
<!-- Generator: Adobe Illustrator 17.0.0, SVG Export Plug-In . SVG Version: 6.00 Build 0)  -->
<!DOCTYPE svg PUBLIC "-//W3C//DTD SVG 1.1//EN" "http://www.w3.org/Graphics/SVG/1.1/DTD/svg11.dtd">
<svg version="1.1" id="Capa_1" xmlns="http://www.w3.org/2000/svg" xmlns:xlink="http://www.w3.org/1999/xlink" x="0px" y="0px"
	 width="64px" height="64px" viewBox="0 0 64 64" enable-background="new 0 0 64 64" xml:space="preserve">
<path d="M47.333,8.5h-31c-4.418,0-8,3.582-8,8v21.167c0,4.418,3.582,8,8,8h31c4.419,0,8-3.582,8-8V16.5
	C55.333,12.082,51.751,8.5,47.333,8.5z M50.667,36.538c0,1.105-0.896,2-2,2H15c-1.105,0-2-0.895-2-2v-20.91c0-1.105,0.895-2,2-2
	h33.667c1.105,0,2,0.895,2,2V36.538z M47.583,56.667h-31.5c0-1.519,3.337-2.841,8.25-3.518v-3.482h15v3.482
	C44.247,53.826,47.583,55.148,47.583,56.667z"/>
</svg>
