<?xml version="1.0" encoding="utf-8"?>
<!-- Generator: Adobe Illustrator 17.0.0, SVG Export Plug-In . SVG Version: 6.00 Build 0)  -->
<!DOCTYPE svg PUBLIC "-//W3C//DTD SVG 1.1//EN" "http://www.w3.org/Graphics/SVG/1.1/DTD/svg11.dtd">
<svg version="1.1" id="Capa_1" xmlns="http://www.w3.org/2000/svg" xmlns:xlink="http://www.w3.org/1999/xlink" x="0px" y="0px"
	 width="64px" height="64px" viewBox="0 0 64 64" enable-background="new 0 0 64 64" xml:space="preserve">
<path d="M54.605,47.874c0,1.818-3.575,3.292-7.985,3.292H16.75c-4.41,0-7.985-1.474-7.985-3.292c0-1.818,3.575-3.292,7.985-3.292
	h6.669c0.513,1.252,2.229,2.177,4.288,2.177h7.956c2.06,0,3.775-0.925,4.288-2.177h6.67C51.031,44.582,54.606,46.056,54.605,47.874z
	 M54.605,21.602v11.836c0,4.926-3.993,8.92-8.92,8.92h-6.169H23.854h-6.169c-4.926,0-8.92-3.993-8.92-8.92V21.602
	c0-4.926,3.993-8.92,8.92-8.92h28C50.612,12.682,54.606,16.675,54.605,21.602z M48.45,20.528c0-1.232-0.998-2.23-2.23-2.23H17.151
	c-1.232,0-2.23,0.998-2.23,2.23v13.984c0,1.232,0.998,2.23,2.23,2.23H46.22c1.232,0,2.23-0.998,2.23-2.23V20.528z"/>
</svg>
