<?xml version="1.0" encoding="utf-8"?>
<!-- Generator: Adobe Illustrator 17.0.0, SVG Export Plug-In . SVG Version: 6.00 Build 0)  -->
<!DOCTYPE svg PUBLIC "-//W3C//DTD SVG 1.1//EN" "http://www.w3.org/Graphics/SVG/1.1/DTD/svg11.dtd">
<svg version="1.1" id="Capa_1" xmlns="http://www.w3.org/2000/svg" xmlns:xlink="http://www.w3.org/1999/xlink" x="0px" y="0px"
	 width="64px" height="64px" viewBox="0 0 64 64" enable-background="new 0 0 64 64" xml:space="preserve">
<path d="M39.159,14.753c0,1.417-1.446,2.565-3.23,2.565H25.884c-1.784,0-3.23-1.103-3.23-2.464s-1.446-2.464-3.23-2.464h-3.836
	c-1.784,0-3.23,1.446-3.23,3.23v32.69c0,1.784,1.446,3.23,3.23,3.23h3.836c1.784,0,3.23-1.069,3.23-2.388
	c0-1.319,1.446-2.388,3.23-2.388h10.044c1.784,0,3.23,1.024,3.23,2.287s1.446,2.287,3.23,2.287h3.836c1.784,0,3.23-1.446,3.23-3.23
	v-32.69c0-1.784-1.446-3.23-3.23-3.23h-3.836C40.605,12.188,39.159,13.337,39.159,14.753z M17.505,14.883
	c1.345,0,2.435,0.545,2.435,1.218v1.218c0,0,0,0.545,0,1.218s-0.511,1.218-1.142,1.218h-1.142c0,0-0.579,0-1.293,0
	c-0.714,0-1.293-1.09-1.293-2.435S16.16,14.883,17.505,14.883z M16.363,24.524h1.293c0,0,0.511,0,1.142,0
	c0.631,0,1.142,1.09,1.142,2.435s-0.511,2.435-1.142,2.435h-1.142c0,0-0.579,0-1.293,0c-0.714,0-1.293-1.09-1.293-2.435
	S15.649,24.524,16.363,24.524z M16.363,34.165h1.293c0,0,0.511,0,1.142,0c0.631,0,1.142,1.09,1.142,2.435s-0.511,2.435-1.142,2.435
	h-1.142c0,0-0.579,0-1.293,0c-0.714,0-1.293-1.09-1.293-2.435S15.649,34.165,16.363,34.165z M17.505,48.677
	c-1.345,0-2.435-1.09-2.435-2.435c0-1.345,0.579-2.435,1.293-2.435h1.293c0,0,0.511,0,1.142,0c0.631,0,1.142,0.662,1.142,1.479
	v1.479c0,0,0,0.428,0,0.956S18.851,48.677,17.505,48.677z M34.148,40.689h-6.634c-1.784,0-3.23-1.446-3.23-3.23v-0.203
	c0-1.784,1.446-3.23,3.23-3.23h6.634c1.784,0,3.23,1.446,3.23,3.23v0.203C37.378,39.243,35.932,40.689,34.148,40.689z
	 M34.148,29.551h-6.634c-1.784,0-3.23-1.446-3.23-3.23v-0.203c0-1.784,1.446-3.23,3.23-3.23h6.634c1.784,0,3.23,1.446,3.23,3.23
	v0.203C37.378,28.105,35.932,29.551,34.148,29.551z M44.307,48.677c-1.345,0-2.435-0.428-2.435-0.956v-0.956c0,0,0-0.662,0-1.479
	c0-0.817,0.545-1.479,1.218-1.479h1.218c0,0,0.545,0,1.218,0c0.673,0,1.218,1.09,1.218,2.435
	C46.742,47.586,45.652,48.677,44.307,48.677z M45.525,39.036h-1.218c0,0-0.545,0-1.218,0c-0.673,0-1.218-1.09-1.218-2.435
	s0.545-2.435,1.218-2.435h1.218c0,0,0.545,0,1.218,0c0.673,0,1.218,1.09,1.218,2.435S46.197,39.036,45.525,39.036z M45.525,29.395
	h-1.218c0,0-0.545,0-1.218,0c-0.673,0-1.218-1.09-1.218-2.435s0.545-2.435,1.218-2.435h1.218c0,0,0.545,0,1.218,0
	c0.673,0,1.218,1.09,1.218,2.435S46.197,29.395,45.525,29.395z M45.525,19.754h-1.218c0,0-0.545,0-1.218,0
	c-0.673,0-1.218-0.545-1.218-1.218v-1.218c0,0,0-0.545,0-1.218c0-0.673,1.09-1.218,2.435-1.218s2.435,1.09,2.435,2.435
	S46.197,19.754,45.525,19.754z"/>
</svg>
