<?xml version="1.0" encoding="utf-8"?>
<!-- Generator: Adobe Illustrator 17.0.0, SVG Export Plug-In . SVG Version: 6.00 Build 0)  -->
<!DOCTYPE svg PUBLIC "-//W3C//DTD SVG 1.1//EN" "http://www.w3.org/Graphics/SVG/1.1/DTD/svg11.dtd">
<svg version="1.1" id="Capa_1" xmlns="http://www.w3.org/2000/svg" xmlns:xlink="http://www.w3.org/1999/xlink" x="0px" y="0px"
	 width="64px" height="64px" viewBox="0 0 64 64" enable-background="new 0 0 64 64" xml:space="preserve">
<path fill="#1D1D1B" d="M44.546,39.011c-0.84,0.11-1.207-3.175-0.838-7.458l1.311-15.242c0.368-4.283,0.406-7.755,0.083-7.755
	h-0.584h-7.005H19.612c0,0-1.829,0-4.086,0s-4.086,2.352-4.086,5.254v5.254v17.902c0,4.299-0.292,9.79-0.292,10.216
	c0,3.976,4.182,7.2,9.34,7.2s9.34-3.223,9.34-7.2s-4.182-7.2-9.34-7.2c-0.628,0-1.242,0.048-1.835,0.139
	c-1.006,0.155-1.493-3.047-1.125-7.33l0.463-5.377c0.368-4.283,4.14-7.469,8.424-7.116l3.342,0.275
	c4.284,0.353,7.757,4.124,7.757,8.422v6.46c0,4.299-0.356,8.368-0.577,9.17c-0.132,0.48-0.202,0.977-0.202,1.487
	c0,3.976,4.182,7.2,9.34,7.2s9.34-3.223,9.34-7.2s-4.182-7.2-9.34-7.2C45.554,38.912,45.043,38.946,44.546,39.011z"/>
</svg>
