<?xml version="1.0" encoding="utf-8"?>
<!-- Generator: Adobe Illustrator 17.0.0, SVG Export Plug-In . SVG Version: 6.00 Build 0)  -->
<!DOCTYPE svg PUBLIC "-//W3C//DTD SVG 1.1//EN" "http://www.w3.org/Graphics/SVG/1.1/DTD/svg11.dtd">
<svg version="1.1" id="Capa_1" xmlns="http://www.w3.org/2000/svg" xmlns:xlink="http://www.w3.org/1999/xlink" x="0px" y="0px"
	 width="64px" height="64px" viewBox="0 0 64 64" enable-background="new 0 0 64 64" xml:space="preserve">
<path fill="#1D1D1B" d="M44.419,25.029V16.96c0-4.73-3.849-8.579-8.579-8.579H25.682c-4.73,0-8.579,3.849-8.579,8.579v8.069
	c-2.254,0.485-3.946,2.485-3.946,4.884v18.921c0,2.761,2.239,5,5,5h25.208c2.762,0,5-2.239,5-5V29.913
	C48.365,27.514,46.673,25.514,44.419,25.029z M24.103,16.96c0-0.871,0.708-1.579,1.579-1.579H35.84c0.871,0,1.579,0.708,1.579,1.579
	v7.953H24.103V16.96z M36.436,37.374H25.086c0.825-2.341,3.051-4.022,5.675-4.022S35.61,35.033,36.436,37.374z M30.761,45.396
	c-2.624,0-4.849-1.681-5.675-4.022h11.349C35.61,43.715,33.385,45.396,30.761,45.396z"/>
</svg>
