<?xml version="1.0" encoding="utf-8"?>
<!-- Generator: Adobe Illustrator 17.0.0, SVG Export Plug-In . SVG Version: 6.00 Build 0)  -->
<!DOCTYPE svg PUBLIC "-//W3C//DTD SVG 1.1//EN" "http://www.w3.org/Graphics/SVG/1.1/DTD/svg11.dtd">
<svg version="1.1" id="Capa_1" xmlns="http://www.w3.org/2000/svg" xmlns:xlink="http://www.w3.org/1999/xlink" x="0px" y="0px"
	 width="64px" height="64px" viewBox="0 0 64 64" enable-background="new 0 0 64 64" xml:space="preserve">
<path d="M41.167,19c-2.209,0-4-1.791-4-4V5.833H24.333c-4.418,0-8,3.582-8,8V47c0,4.418,3.582,8,8,8h19.5c4.419,0,8-3.582,8-8V19
	H41.167z M34.083,37.875H24.25c-0.829,0-1.5-0.672-1.5-1.5s0.671-1.5,1.5-1.5h9.833c0.828,0,1.5,0.672,1.5,1.5
	S34.911,37.875,34.083,37.875z M43.625,32H24.25c-0.829,0-1.5-0.671-1.5-1.5s0.671-1.5,1.5-1.5h19.375c0.828,0,1.5,0.671,1.5,1.5
	S44.453,32,43.625,32z M43.625,26.125H24.25c-0.829,0-1.5-0.671-1.5-1.5s0.671-1.5,1.5-1.5h19.375c0.828,0,1.5,0.671,1.5,1.5
	S44.453,26.125,43.625,26.125z M39.959,13.609V8.68c0-1.215,0.751-2.251,1.814-2.678l9.769,7.815
	c-0.108,1.498-1.345,2.683-2.87,2.683H42.85C41.253,16.5,39.959,15.206,39.959,13.609z"/>
</svg>
