<?xml version="1.0" encoding="utf-8"?>
<!-- Generator: Adobe Illustrator 17.0.0, SVG Export Plug-In . SVG Version: 6.00 Build 0)  -->
<!DOCTYPE svg PUBLIC "-//W3C//DTD SVG 1.1//EN" "http://www.w3.org/Graphics/SVG/1.1/DTD/svg11.dtd">
<svg version="1.1" id="Capa_1" xmlns="http://www.w3.org/2000/svg" xmlns:xlink="http://www.w3.org/1999/xlink" x="0px" y="0px"
	 width="64px" height="64px" viewBox="0 0 64 64" enable-background="new 0 0 64 64" xml:space="preserve">
<g>
	<path fill="#1D1D1B" d="M45.933,12.063l2.284,31.874H16.94l2.284-31.874H45.933 M50.588,7.063H14.569l-3,41.874h42.019
		L50.588,7.063L50.588,7.063z"/>
</g>
<rect x="11.569" y="48.937" fill="#1D1D1B" width="42.019" height="8.896"/>
<path fill="#FFFFFF" d="M40.912,43.792c0,2.715-2.201,4.917-4.917,4.917h-6.833c-2.715,0-4.917-2.201-4.917-4.917l0,0
	c0-2.715,2.201-4.917,4.917-4.917h6.833C38.711,38.875,40.912,41.076,40.912,43.792L40.912,43.792z"/>
<line fill="none" stroke="#1D1D1B" stroke-width="3" stroke-miterlimit="10" x1="22.412" y1="16.25" x2="42.745" y2="16.25"/>
<line fill="none" stroke="#1D1D1B" stroke-width="3" stroke-miterlimit="10" x1="21.667" y1="21.979" x2="43.491" y2="21.979"/>
<line fill="none" stroke="#1D1D1B" stroke-width="3" stroke-miterlimit="10" x1="20.824" y1="27.708" x2="44.333" y2="27.708"/>
<line fill="none" stroke="#1D1D1B" stroke-width="3" stroke-miterlimit="10" x1="19.667" y1="33.438" x2="45.491" y2="33.438"/>
<line fill="none" stroke="#1D1D1B" stroke-width="3" stroke-miterlimit="10" x1="19.667" y1="39.167" x2="45.491" y2="39.167"/>
</svg>
