<?xml version="1.0" encoding="utf-8"?>
<!-- Generator: Adobe Illustrator 17.0.0, SVG Export Plug-In . SVG Version: 6.00 Build 0)  -->
<!DOCTYPE svg PUBLIC "-//W3C//DTD SVG 1.1//EN" "http://www.w3.org/Graphics/SVG/1.1/DTD/svg11.dtd">
<svg version="1.1" id="Capa_1" xmlns="http://www.w3.org/2000/svg" xmlns:xlink="http://www.w3.org/1999/xlink" x="0px" y="0px"
	 width="64px" height="64px" viewBox="0 0 64 64" enable-background="new 0 0 64 64" xml:space="preserve">
<path fill="#1D1D1B" d="M28.082,45.218l-11.196,4.104c-2.074,0.76-3.139-0.305-2.379-2.379l4.104-11.196
	c0.76-2.074,2.643-2.489,4.205-0.927l6.193,6.193C30.571,42.575,30.156,44.457,28.082,45.218z"/>
<path fill="#1D1D1B" d="M10.181,28.192l36.43-13.354c2.074-0.76,3.139,0.305,2.379,2.379l-13.354,36.43
	c-0.76,2.074-2.643,2.489-4.205,0.927L9.253,32.397C7.691,30.835,8.106,28.953,10.181,28.192z"/>
<path fill="#FFFFFF" d="M20.325,39.787l13.378-10.371c1.746-1.354,2.064-1.036,0.71,0.71L24.042,43.503
	c-1.354,1.746-3.442,2.17-4.664,0.948C18.155,43.228,18.579,41.14,20.325,39.787z"/>
</svg>
