<?xml version="1.0" encoding="utf-8"?>
<!-- Generator: Adobe Illustrator 17.0.0, SVG Export Plug-In . SVG Version: 6.00 Build 0)  -->
<!DOCTYPE svg PUBLIC "-//W3C//DTD SVG 1.1//EN" "http://www.w3.org/Graphics/SVG/1.1/DTD/svg11.dtd">
<svg version="1.1" id="Capa_1" xmlns="http://www.w3.org/2000/svg" xmlns:xlink="http://www.w3.org/1999/xlink" x="0px" y="0px"
	 width="64px" height="64px" viewBox="0 0 64 64" enable-background="new 0 0 64 64" xml:space="preserve">
<path d="M41.257,6H23.744C18.362,6,14,10.362,14,15.744v29.512C14,50.638,18.362,55,23.744,55h17.512C46.638,55,51,50.638,51,45.256
	V15.744C51,10.362,46.638,6,41.257,6z M32.67,52.645c-1.003,0-1.817-0.814-1.817-1.817s0.813-1.817,1.817-1.817
	c1.004,0,1.817,0.814,1.817,1.817S33.674,52.645,32.67,52.645z M46,42.043C46,44.781,43.781,47,41.043,47H23.957
	C21.219,47,19,44.781,19,42.043V15.957C19,13.219,21.219,11,23.957,11h17.087C43.781,11,46,13.219,46,15.957V42.043z"/>
</svg>
