<?xml version="1.0" encoding="utf-8"?>
<!-- Generator: Adobe Illustrator 17.0.0, SVG Export Plug-In . SVG Version: 6.00 Build 0)  -->
<!DOCTYPE svg PUBLIC "-//W3C//DTD SVG 1.1//EN" "http://www.w3.org/Graphics/SVG/1.1/DTD/svg11.dtd">
<svg version="1.1" id="Capa_1" xmlns="http://www.w3.org/2000/svg" xmlns:xlink="http://www.w3.org/1999/xlink" x="0px" y="0px"
	 width="64px" height="64px" viewBox="0 0 64 64" enable-background="new 0 0 64 64" xml:space="preserve">
<path d="M43.36,15.157c-5.399-2.759-12.385,0.791-12.385,7.032c0,2.629,1.26,4.96,3.206,6.434c0.44,0.333,0.64,0.958,0.372,1.441
	c-1.647,2.972-4.127,5.416-7.129,7.015c-0.487,0.26-1.117,0.072-1.495-0.331c-0.975-1.041-2.812-2.778-3.135-2.95
	c-1.54-0.821-3.346-0.99-5.047-0.671c-3.38,0.633-6.118,3.627-6.477,7.109c-0.527,5.111,3.361,8.183,7.938,9.044
	c1.849,0.347,4.733-0.588,6.538-1.012c2.198-0.516,4.353-1.224,6.371-2.245c6.21-3.143,11.432-9.146,13.749-15.759
	c0.183-0.521,0.444-1.379,0.58-1.914c0.459-1.815,0.77-4.03,0.649-6.157C46.927,19.248,45.933,16.472,43.36,15.157z"/>
</svg>
