<?xml version="1.0" encoding="utf-8"?>
<!-- Generator: Adobe Illustrator 17.0.0, SVG Export Plug-In . SVG Version: 6.00 Build 0)  -->
<!DOCTYPE svg PUBLIC "-//W3C//DTD SVG 1.1//EN" "http://www.w3.org/Graphics/SVG/1.1/DTD/svg11.dtd">
<svg version="1.1" id="Capa_1" xmlns="http://www.w3.org/2000/svg" xmlns:xlink="http://www.w3.org/1999/xlink" x="0px" y="0px"
	 width="64px" height="64px" viewBox="0 0 64 64" enable-background="new 0 0 64 64" xml:space="preserve">
<path d="M56.667,7.667H7.333c-2.209,0-4,1.791-4,4v38.666c0,2.209,1.791,4,4,4h49.334c2.209,0,4-1.791,4-4V11.667
	C60.667,9.458,58.876,7.667,56.667,7.667z M11.333,15.667h41.334v21.501l-10.021-7.099c-1.205-0.854-2.783-0.974-4.102-0.313
	L27.81,35.122l-4.471-5.094c-1.37-1.561-3.706-1.814-5.376-0.584l-6.63,4.875V15.667z M11.333,46.333v-2.089
	c0.012-0.008,0.025-0.013,0.037-0.022l8.377-6.159l7.258,8.27H11.333z M37.649,46.333l-4.383-4.994l6.711-3.356l11.787,8.35H37.649z
	 M19,26.5c-2.393,0-4.333-1.94-4.333-4.333s1.94-4.333,4.333-4.333s4.333,1.94,4.333,4.333S21.393,26.5,19,26.5z"/>
</svg>
