<?xml version="1.0" encoding="utf-8"?>
<!-- Generator: Adobe Illustrator 17.0.0, SVG Export Plug-In . SVG Version: 6.00 Build 0)  -->
<!DOCTYPE svg PUBLIC "-//W3C//DTD SVG 1.1//EN" "http://www.w3.org/Graphics/SVG/1.1/DTD/svg11.dtd">
<svg version="1.1" id="Capa_1" xmlns="http://www.w3.org/2000/svg" xmlns:xlink="http://www.w3.org/1999/xlink" x="0px" y="0px"
	 width="64px" height="64px" viewBox="0 0 64 64" enable-background="new 0 0 64 64" xml:space="preserve">
<path d="M28.019,9.086C16.959,10.977,8.542,20.61,8.542,32.208c0,12.956,10.503,23.458,23.458,23.458
	c11.599,0,21.231-8.418,23.122-19.478c0.372-2.178-1.454-3.981-3.664-3.981H36c-2.209,0-4-1.791-4-4V12.75
	C32,10.541,30.197,8.714,28.019,9.086z"/>
<path d="M35.833,15.355v10.343c0,1.478,1.198,2.676,2.676,2.676h10.343c1.478,0,2.7-1.207,2.451-2.664
	c-1.117-6.534-6.273-11.691-12.807-12.808C37.04,12.655,35.833,13.877,35.833,15.355z"/>
</svg>
