<?xml version="1.0" encoding="utf-8"?>
<!-- Generator: Adobe Illustrator 17.0.0, SVG Export Plug-In . SVG Version: 6.00 Build 0)  -->
<!DOCTYPE svg PUBLIC "-//W3C//DTD SVG 1.1//EN" "http://www.w3.org/Graphics/SVG/1.1/DTD/svg11.dtd">
<svg version="1.1" id="Capa_1" xmlns="http://www.w3.org/2000/svg" xmlns:xlink="http://www.w3.org/1999/xlink" x="0px" y="0px"
	 width="64px" height="64px" viewBox="0 0 64 64" enable-background="new 0 0 64 64" xml:space="preserve">
<path d="M9.5,43.667c0,3.314,2.686,6,6,6h32.75c3.314,0,6-2.686,6-6V34H9.5V43.667z"/>
<path d="M48.25,25H15.5c-3.314,0-6,2.686-6,6h44.75C54.25,27.686,51.564,25,48.25,25z"/>
<circle fill="#FFFFFF" cx="48" cy="41" r="2.5"/>
<g>
	<path d="M23.476,54.273c-1.299,0-2.456-0.54-3.175-1.481c-0.718-0.941-0.934-2.199-0.591-3.452l0.688-2.521
		c0.632-2.31,3.001-4.118,5.395-4.118h12.164c2.394,0,4.763,1.809,5.395,4.117l0.688,2.523c0.343,1.252,0.127,2.51-0.591,3.451
		c-0.719,0.941-1.876,1.481-3.175,1.481H23.476z"/>
	<path fill="#FFFFFF" d="M37.958,44.245c1.706,0,3.454,1.334,3.904,2.98l0.689,2.523c0.45,1.646-0.569,2.98-2.275,2.98H23.475
		c-1.706,0-2.725-1.334-2.275-2.98l0.689-2.523c0.45-1.646,2.197-2.98,3.904-2.98H37.958 M37.958,41.156H25.792
		c-3.106,0-6.065,2.26-6.884,5.256l-0.689,2.522c-0.47,1.721-0.159,3.47,0.854,4.796s2.617,2.088,4.402,2.088h16.799
		c1.784,0,3.389-0.761,4.402-2.088s1.324-3.075,0.854-4.796l-0.689-2.523C44.023,43.415,41.064,41.156,37.958,41.156L37.958,41.156z
		"/>
</g>
<path d="M41.75,12.667H22c-1.105,0-2,0.895-2,2V22.5h23.75v-7.833C43.75,13.562,42.855,12.667,41.75,12.667z"/>
</svg>
