<?xml version="1.0" encoding="utf-8"?>
<!-- Generator: Adobe Illustrator 17.0.0, SVG Export Plug-In . SVG Version: 6.00 Build 0)  -->
<!DOCTYPE svg PUBLIC "-//W3C//DTD SVG 1.1//EN" "http://www.w3.org/Graphics/SVG/1.1/DTD/svg11.dtd">
<svg version="1.1" id="Capa_1" xmlns="http://www.w3.org/2000/svg" xmlns:xlink="http://www.w3.org/1999/xlink" x="0px" y="0px"
	 width="64px" height="64px" viewBox="0 0 64 64" enable-background="new 0 0 64 64" xml:space="preserve">
<g>
	<path d="M38.88,55.583c3.735,0,6.872-2.559,7.753-6.02c0.273-1.07-0.649-1.98-1.753-1.98H17.361c-1.105,0-2.026,0.909-1.753,1.98
		c0.881,3.461,4.018,6.02,7.753,6.02H38.88z"/>
	<path d="M46.787,18.601h-0.774H34.411h-6.583H16.228h-0.774c-2.209,0-4,1.656-4,3.7c0,2.043,1.791,3.7,4,3.7h31.333
		c2.209,0,4-1.656,4-3.7C50.787,20.257,48.996,18.601,46.787,18.601z"/>
	<path d="M44.012,16.601c1.105,0,1.611-0.821,0.884-1.653c-1.465-1.677-3.615-2.738-6.017-2.738c0,0-0.886,0-1.979,0
		s-2.347-0.87-3.22-1.547c-0.708-0.549-1.594-0.877-2.561-0.877c-0.966,0-1.853,0.328-2.561,0.877
		c-0.873,0.677-2.126,1.547-3.22,1.547h-1.979c-2.402,0-4.552,1.061-6.017,2.738c-0.727,0.832-0.22,1.653,0.884,1.653h9.601h6.583
		H44.012z"/>
	<path d="M33.282,31v11.583c0,1.105,0.895,2,2,2h1.468c1.105,0,2-0.895,2-2V31c0-1.105-0.895-2-2-2h-1.468
		C34.178,29,33.282,29.895,33.282,31z"/>
	<path d="M23.333,31v11.583c0,1.105,0.895,2,2,2h1.949c1.105,0,2-0.895,2-2V31c0-1.105-0.895-2-2-2h-1.949
		C24.228,29,23.333,29.895,23.333,31z"/>
	<path d="M44.75,44.583h0.13c1.105,0,2-0.895,2-2V31c0-1.105-0.895-2-2-2h-0.13c-1.105,0-2,0.895-2,2v11.583
		C42.75,43.688,43.645,44.583,44.75,44.583z"/>
	<path d="M15.361,31v11.583c0,1.105,0.889,2,1.986,2s1.986-0.895,1.986-2V31c0-1.105-0.889-2-1.986-2S15.361,29.895,15.361,31z"/>
</g>
</svg>
