<?xml version="1.0" encoding="utf-8"?>
<!-- Generator: Adobe Illustrator 17.0.0, SVG Export Plug-In . SVG Version: 6.00 Build 0)  -->
<!DOCTYPE svg PUBLIC "-//W3C//DTD SVG 1.1//EN" "http://www.w3.org/Graphics/SVG/1.1/DTD/svg11.dtd">
<svg version="1.1" id="Capa_1" xmlns="http://www.w3.org/2000/svg" xmlns:xlink="http://www.w3.org/1999/xlink" x="0px" y="0px"
	 width="64px" height="64px" viewBox="0 0 64 64" enable-background="new 0 0 64 64" xml:space="preserve">
<g>
	<path d="M52.836,24.91c-0.78-1.462-2.635-1.922-4.062-1.081c-1.4,0.826-2.859,1.679-4.345,2.534
		c-1.436,0.826-2.008,2.686-1.216,4.141c1.147,2.106,2.363,4.18,3.546,6.26c1.103,1.94,2.275,3.864,3.132,5.92
		c0.638,1.529,1.586,1.678,2.436,0.256c1.04-1.738,2.116-3.453,3.188-5.173c0.644-1.031,1.353-2.145,1.628-3.346
		c0.339-1.49-0.671-2.59-1.336-3.804C54.779,28.738,53.846,26.802,52.836,24.91z"/>
	<path d="M47.429,41.605c-2.766-0.053-5.549,0.178-8.306-0.119l-0.563-0.062l-0.038-0.565c-0.029-0.432-0.02-0.898-0.007-1.373
		c-1.507,2.728-3.192,5.357-4.621,8.13l0.603,1.147c1.239,2.358,2.512,4.777,3.876,7.078c-0.003-0.845,0.023-1.721,0.158-2.516
		l0.109-0.642l0.645,0.082c2.647,0.342,5.877,0.304,8.05-1.49c1.153-0.952,1.764-2.336,1.915-3.804
		C49.48,45.218,48.382,43.538,47.429,41.605C46.481,41.587,47.604,41.961,47.429,41.605z"/>
	<path d="M27.321,53.197c1.656,0.051,2.979-1.329,2.959-2.985c-0.019-1.625-0.033-3.316-0.035-5.03
		c-0.002-1.657-1.33-3.078-2.986-3.116c-2.398-0.054-4.801-0.032-7.194-0.041c-2.232-0.009-4.483,0.049-6.693-0.231
		c-1.644-0.208-2.245,0.539-1.435,1.985c0.99,1.767,1.941,3.554,2.899,5.341c0.574,1.073,1.187,2.242,2.092,3.078
		c1.123,1.036,2.58,0.708,3.964,0.735C23.034,52.977,25.177,53.131,27.321,53.197z"/>
	<path d="M15.533,40.196c1.423-2.373,2.607-4.901,4.238-7.145l0.334-0.456l0.509,0.247c0.389,0.19,0.789,0.43,1.194,0.677
		c-1.616-2.664-3.057-5.436-4.75-8.055l-1.295-0.048c-2.662-0.1-5.393-0.2-8.068-0.163c0.734,0.418,1.481,0.877,2.104,1.39
		l0.502,0.414l-0.393,0.518c-1.615,2.126-3.19,4.945-2.715,7.724c0.251,1.474,1.147,2.693,2.347,3.555
		C11.378,40.177,13.382,40.06,15.533,40.196C16.02,39.382,15.137,40.171,15.533,40.196z"/>
	<path d="M15.896,17.105c-0.873,1.408-0.342,3.243,1.102,4.055c1.417,0.797,2.888,1.631,4.373,2.488
		c1.435,0.828,3.331,0.39,4.192-1.026c1.246-2.049,2.43-4.141,3.636-6.208c1.126-1.928,2.201-3.906,3.55-5.68
		c1.003-1.319,0.657-2.213-1-2.236c-2.026-0.028-4.049-0.098-6.075-0.163c-1.216-0.04-2.534-0.094-3.712,0.27
		c-1.458,0.454-1.904,1.879-2.62,3.065C18.232,13.504,17.026,15.282,15.896,17.105z"/>
	<path d="M33.05,13.406c1.343,2.419,2.938,4.71,4.066,7.244l0.228,0.517l-0.469,0.318c-0.358,0.241-0.767,0.468-1.183,0.693
		c3.115-0.065,6.235,0.074,9.351-0.081L45.732,21c1.418-2.256,2.872-4.57,4.178-6.904c-0.729,0.427-1.5,0.844-2.256,1.127
		l-0.609,0.227l-0.253-0.599c-1.033-2.462-2.684-5.236-5.328-6.216c-1.401-0.52-2.905-0.354-4.251,0.253
		C35.146,9.818,34.243,11.612,33.05,13.406C33.511,14.235,33.27,13.076,33.05,13.406z"/>
</g>
<circle cx="32.159" cy="32.074" r="5.463"/>
</svg>
