<?xml version="1.0" encoding="utf-8"?>
<!-- Generator: Adobe Illustrator 17.0.0, SVG Export Plug-In . SVG Version: 6.00 Build 0)  -->
<!DOCTYPE svg PUBLIC "-//W3C//DTD SVG 1.1//EN" "http://www.w3.org/Graphics/SVG/1.1/DTD/svg11.dtd">
<svg version="1.1" id="Capa_1" xmlns="http://www.w3.org/2000/svg" xmlns:xlink="http://www.w3.org/1999/xlink" x="0px" y="0px"
	 width="64px" height="64px" viewBox="0 0 64 64" enable-background="new 0 0 64 64" xml:space="preserve">
<path fill="#1D1D1B" d="M14.977,18.721c-0.67,0.878-1.143,1.038-1.143,0.294v-1.348c0-1.933-1.567-3.5-3.5-3.5s-3.5,1.567-3.5,3.5
	v12c0,1.933,1.567,3.5,3.5,3.5h12c1.933,0,3.5-1.567,3.5-3.5s-1.567-3.5-3.5-3.5c0,0-0.579,0-1.294,0s-0.916-0.817-0.31-1.74
	c2.752-4.187,7.47-6.795,12.569-6.795c8.29,0,15.034,6.744,15.034,15.034c0,8.289-6.744,15.033-15.034,15.033c-2.209,0-4,1.791-4,4
	s1.791,4,4,4C46,55.7,56.333,45.367,56.333,32.667C56.333,19.966,46,9.633,33.299,9.633C26.038,9.633,19.279,13.084,14.977,18.721z"
	/>
</svg>
