<?xml version="1.0" encoding="utf-8"?>
<!-- Generator: Adobe Illustrator 17.0.0, SVG Export Plug-In . SVG Version: 6.00 Build 0)  -->
<!DOCTYPE svg PUBLIC "-//W3C//DTD SVG 1.1//EN" "http://www.w3.org/Graphics/SVG/1.1/DTD/svg11.dtd">
<svg version="1.1" id="Capa_1" xmlns="http://www.w3.org/2000/svg" xmlns:xlink="http://www.w3.org/1999/xlink" x="0px" y="0px"
	 width="64px" height="64px" viewBox="0 0 64 64" enable-background="new 0 0 64 64" xml:space="preserve">
<path d="M54.34,31.04c0-1.8-1.296-3.719-2.895-4.285s-3.149-1.952-3.6-3.045s-0.334-3.173,0.395-4.705s0.288-3.807-0.985-5.08
	s-3.547-1.714-5.08-0.985s-3.61,0.848-4.7,0.397s-2.476-2.003-3.045-3.602S31.94,6.84,30.14,6.84s-3.721,1.296-4.29,2.895
	s-1.955,3.151-3.045,3.602c-1.09,0.451-3.168,0.332-4.7-0.397s-3.807-0.288-5.08,0.985s-1.714,3.547-0.985,5.08
	s0.845,3.611,0.392,4.703s-1.998,2.481-3.597,3.047S5.94,29.24,5.94,31.04s1.296,3.721,2.895,4.29s3.146,1.957,3.599,3.047
	c0.453,1.089,0.335,3.166-0.394,4.698s-0.288,3.807,0.985,5.08s3.547,1.714,5.08,0.985s3.61-0.846,4.7-0.394
	c1.091,0.452,2.476,2.008,3.045,3.604s2.49,2.89,4.29,2.89s3.721-1.294,4.29-2.89s1.953-3.151,3.043-3.605
	c1.09-0.453,3.17-0.334,4.702,0.395s3.807,0.288,5.08-0.985s1.714-3.547,0.985-5.08s-0.848-3.61-0.397-4.7
	c0.451-1.09,2.003-2.476,3.602-3.045S54.34,32.84,54.34,31.04z M30.14,39.92c-4.91,0-8.88-3.97-8.88-8.87
	c0-4.91,3.97-8.88,8.88-8.88c4.9,0,8.87,3.97,8.87,8.88C39.01,35.95,35.04,39.92,30.14,39.92z"/>
</svg>
