<?xml version="1.0" encoding="utf-8"?>
<!-- Generator: Adobe Illustrator 17.0.0, SVG Export Plug-In . SVG Version: 6.00 Build 0)  -->
<!DOCTYPE svg PUBLIC "-//W3C//DTD SVG 1.1//EN" "http://www.w3.org/Graphics/SVG/1.1/DTD/svg11.dtd">
<svg version="1.1" id="Capa_1" xmlns="http://www.w3.org/2000/svg" xmlns:xlink="http://www.w3.org/1999/xlink" x="0px" y="0px"
	 width="64px" height="64px" viewBox="0 0 64 64" enable-background="new 0 0 64 64" xml:space="preserve">
<path d="M53.436,22.667c4.418,0,4.608-1.15,0.424-2.57l-13.839-7.694c-4.184-1.419-10.968-1.419-15.152,0l-13.839,7.694
	c-4.184,1.419-3.994,2.57,0.424,2.57h3.408h0.277c-0.172,0.295-0.277,0.634-0.277,1v23.5h-2.792c-1.933,0-3.5,1.567-3.5,3.5
	s1.567,3.5,3.5,3.5h40.75c1.933,0,3.5-1.567,3.5-3.5s-1.567-3.5-3.5-3.5h-2.792v-23.5c0-0.366-0.106-0.705-0.277-1h0.277H53.436z
	 M28.944,47.167h-7.083v-23.5c0-0.366-0.106-0.705-0.277-1h0.277h7.083h0.277c-0.172,0.295-0.277,0.634-0.277,1V47.167z
	 M43.028,23.667v23.5h-7.083v-23.5c0-0.366-0.106-0.705-0.277-1h0.277h7.083h0.277C43.133,22.962,43.028,23.3,43.028,23.667z"/>
</svg>
