<?xml version="1.0" encoding="utf-8"?>
<!-- Generator: Adobe Illustrator 17.0.0, SVG Export Plug-In . SVG Version: 6.00 Build 0)  -->
<!DOCTYPE svg PUBLIC "-//W3C//DTD SVG 1.1//EN" "http://www.w3.org/Graphics/SVG/1.1/DTD/svg11.dtd">
<svg version="1.1" id="Capa_1" xmlns="http://www.w3.org/2000/svg" xmlns:xlink="http://www.w3.org/1999/xlink" x="0px" y="0px"
	 width="64px" height="64px" viewBox="0 0 64 64" enable-background="new 0 0 64 64" xml:space="preserve">
<g>
	<path d="M31.514,15.985c4.387,0,8.512,1.709,11.615,4.811c3.102,3.102,4.811,7.227,4.811,11.615s-1.709,8.512-4.811,11.615
		c-3.102,3.102-7.227,4.811-11.615,4.811s-8.512-1.709-11.615-4.811c-3.102-3.102-4.811-7.227-4.811-11.615
		s1.709-8.512,4.811-11.615C23.002,17.694,27.126,15.985,31.514,15.985 M31.514,7.985c-6.251,0-12.502,2.385-17.271,7.154
		c-9.539,9.539-9.539,25.004,0,34.543c4.769,4.769,11.02,7.154,17.271,7.154c6.251,0,12.502-2.385,17.272-7.154
		c9.539-9.539,9.539-25.004,0-34.543C44.016,10.37,37.765,7.985,31.514,7.985L31.514,7.985z"/>
</g>
<path d="M35.615,34.04c0.362-0.925,0.968-2.361,1.788-3.1l9.267-8.352c0.821-0.739,0.853-1.972,0.071-2.753l-2.652-2.652
	c-0.781-0.781-2.014-0.749-2.753,0.071l-8.352,9.267c-0.739,0.821-2.175,1.426-3.1,1.788c-0.544,0.213-1.054,0.538-1.494,0.978
	c-0.435,0.435-0.758,0.937-0.972,1.474c-0.363,0.912-0.978,2.337-1.799,3.077l-8.777,7.91c-0.821,0.739-0.853,1.972-0.071,2.753
	l2.652,2.652c0.781,0.781,2.014,0.749,2.753-0.071l7.91-8.777c0.739-0.821,2.165-1.436,3.077-1.799
	c0.536-0.214,1.039-0.537,1.474-0.972C35.077,35.094,35.403,34.584,35.615,34.04z"/>
</svg>
