<?xml version="1.0" encoding="utf-8"?>
<!-- Generator: Adobe Illustrator 17.0.0, SVG Export Plug-In . SVG Version: 6.00 Build 0)  -->
<!DOCTYPE svg PUBLIC "-//W3C//DTD SVG 1.1//EN" "http://www.w3.org/Graphics/SVG/1.1/DTD/svg11.dtd">
<svg version="1.1" id="Capa_1" xmlns="http://www.w3.org/2000/svg" xmlns:xlink="http://www.w3.org/1999/xlink" x="0px" y="0px"
	 width="64px" height="64px" viewBox="0 0 64 64" enable-background="new 0 0 64 64" xml:space="preserve">
<path d="M47.866,45.991H19.805c-1.846,0-3.342-1.496-3.342-3.342V14.74c0-1.846-1.411-3.342-3.151-3.342s-3.151,1.496-3.151,3.342
	v27.91c0,1.846-0.026,4.753-0.03,6.493c-0.005,1.74,0.02,3.186,0.026,3.24c0.005,0.054,1.415,0.098,3.156,0.098
	s3.151-0.042,3.151-0.093s1.496-0.093,3.342-0.093h28.062c1.846,0,3.342-1.411,3.342-3.151
	C51.208,47.402,49.712,45.991,47.866,45.991z"/>
<path d="M34.726,16.292c-2.426,2.426-11.489,11.49-11.489,11.49c-0.979,0.979-0.979,2.566,0,3.545l1.292,1.292
	c0.326,0.326,0.326,0.855,0,1.182l-5.279,5.278c-0.979,0.979-0.979,2.566,0,3.545c0.49,0.49,1.131,0.734,1.773,0.734
	c0.641,0,1.283-0.245,1.772-0.734l7.642-7.642c0.47-0.47,0.734-1.108,0.734-1.773c0-0.665-0.264-1.302-0.734-1.772l-1.292-1.292
	c-0.326-0.326-0.326-0.855,0-1.182l9.126-9.126c0.326-0.326,0.326-0.855,0-1.182l-2.363-2.363
	C35.582,15.965,35.053,15.965,34.726,16.292z"/>
<path d="M33.904,11.696l2.591,2.322l4.233,3.794l2.591,2.322c0.569,0.51,1.03,0.339,1.03-0.382v-7.673
	c0-0.721-0.652-1.306-1.457-1.306h-8.561C33.526,10.773,33.335,11.187,33.904,11.696z"/>
</svg>
