<?xml version="1.0" encoding="utf-8"?>
<!-- Generator: Adobe Illustrator 17.0.0, SVG Export Plug-In . SVG Version: 6.00 Build 0)  -->
<!DOCTYPE svg PUBLIC "-//W3C//DTD SVG 1.1//EN" "http://www.w3.org/Graphics/SVG/1.1/DTD/svg11.dtd">
<svg version="1.1" id="Capa_1" xmlns="http://www.w3.org/2000/svg" xmlns:xlink="http://www.w3.org/1999/xlink" x="0px" y="0px"
	 width="64px" height="64px" viewBox="0 0 64 64" enable-background="new 0 0 64 64" xml:space="preserve">
<path d="M31.667,4.5c-15.164,0-27.5,12.336-27.5,27.5c0,15.163,12.336,27.5,27.5,27.5c15.163,0,27.5-12.337,27.5-27.5
	C59.167,16.836,46.83,4.5,31.667,4.5z M31.667,52.5c-11.304,0-20.5-9.196-20.5-20.5s9.196-20.5,20.5-20.5s20.5,9.196,20.5,20.5
	S42.971,52.5,31.667,52.5z M31.667,20.167c-6.525,0-11.833,5.308-11.833,11.833c0,6.524,5.308,11.833,11.833,11.833
	C38.191,43.833,43.5,38.524,43.5,32C43.5,25.475,38.191,20.167,31.667,20.167z M31.667,36.833c-2.665,0-4.833-2.168-4.833-4.833
	s2.168-4.833,4.833-4.833S36.5,29.335,36.5,32S34.332,36.833,31.667,36.833z"/>
</svg>
