<?xml version="1.0" encoding="utf-8"?>
<!-- Generator: Adobe Illustrator 17.0.0, SVG Export Plug-In . SVG Version: 6.00 Build 0)  -->
<!DOCTYPE svg PUBLIC "-//W3C//DTD SVG 1.1//EN" "http://www.w3.org/Graphics/SVG/1.1/DTD/svg11.dtd">
<svg version="1.1" id="Capa_1" xmlns="http://www.w3.org/2000/svg" xmlns:xlink="http://www.w3.org/1999/xlink" x="0px" y="0px"
	 width="64px" height="64px" viewBox="0 0 64 64" enable-background="new 0 0 64 64" xml:space="preserve">
<path d="M36.192,12.223H24.375c-4.418,0-8,3.582-8,8V45c0,4.418,3.582,8,8,8h11.817c4.418,0,8-3.582,8-8V20.223
	C44.192,15.805,40.61,12.223,36.192,12.223z M30.283,49.76c-1.625,0-2.943-1.318-2.943-2.943s1.318-2.943,2.943-2.943
	s2.943,1.318,2.943,2.943S31.908,49.76,30.283,49.76z M39.748,37.969c0,1.942-1.575,3.517-3.517,3.517H24.335
	c-1.942,0-3.516-1.574-3.516-3.516V20.254c0-1.942,1.574-3.516,3.516-3.516h11.897c1.942,0,3.516,1.574,3.516,3.516V37.969z"/>
</svg>
