<?xml version="1.0" encoding="utf-8"?>
<!-- Generator: Adobe Illustrator 17.0.0, SVG Export Plug-In . SVG Version: 6.00 Build 0)  -->
<!DOCTYPE svg PUBLIC "-//W3C//DTD SVG 1.1//EN" "http://www.w3.org/Graphics/SVG/1.1/DTD/svg11.dtd">
<svg version="1.1" id="Capa_1" xmlns="http://www.w3.org/2000/svg" xmlns:xlink="http://www.w3.org/1999/xlink" x="0px" y="0px"
	 width="64px" height="64px" viewBox="0 0 64 64" enable-background="new 0 0 64 64" xml:space="preserve">
<path d="M38,29.673V13.03c0-3.866-3.134-7-7-7s-7,3.134-7,7v16.644c-3.883,2.367-6.484,6.629-6.484,11.509
	c0,7.447,6.037,13.484,13.484,13.484s13.484-6.037,13.484-13.484C44.484,36.302,41.883,32.04,38,29.673z M33.906,48.544
	C33.005,48.9,32.027,49.102,31,49.102s-2.005-0.202-2.906-0.558c-2.935-1.159-5.014-4.015-5.014-7.362
	c0-1.337,0.335-2.596,0.92-3.701c0.962-1.815,2.606-3.211,4.593-3.844v-5.712v-5.508c0-1.329,1.078-2.407,2.407-2.407
	s2.407,1.078,2.407,2.407v5.508v5.713c1.987,0.633,3.631,2.029,4.593,3.844c0.585,1.105,0.92,2.363,0.92,3.701
	C38.92,44.529,36.841,47.385,33.906,48.544z"/>
</svg>
