<?xml version="1.0" encoding="utf-8"?>
<!-- Generator: Adobe Illustrator 17.0.0, SVG Export Plug-In . SVG Version: 6.00 Build 0)  -->
<!DOCTYPE svg PUBLIC "-//W3C//DTD SVG 1.1//EN" "http://www.w3.org/Graphics/SVG/1.1/DTD/svg11.dtd">
<svg version="1.1" id="Capa_1" xmlns="http://www.w3.org/2000/svg" xmlns:xlink="http://www.w3.org/1999/xlink" x="0px" y="0px"
	 width="64px" height="64px" viewBox="0 0 64 64" enable-background="new 0 0 64 64" xml:space="preserve">
<path d="M47.015,28.181c-4.522-4.522-9.043-9.043-13.565-13.565c2.386-2.922,4.605-5.005,7.257-2.355
	c1.318,1.318,2.635,2.635,3.953,3.953C47.318,18.872,49.401,25.259,47.015,28.181z M15.447,24.226
	c2.071,1.378,3.744,2.956,4.479,3.691l9.599,9.599c5.141-2.6,11.581-3.899,15.735-7.485c-4.522-4.521-9.043-9.043-13.565-13.565
	C27.4,20.174,20.666,21.443,15.447,24.226z M26.05,39.698l-8.953-8.953c-1.786-1.786-3.643-3.167-5.272-4.028
	c-1.182-0.625-2.248-0.983-3.062-0.983c-0.516,0-0.934,0.137-1.223,0.426c-0.987,0.987-0.197,3.478,1.773,6.251
	c0.77,1.084,1.714,2.209,2.812,3.306l8.985,8.985l12.345,12.345c0.847,0.847,1.934,1.28,2.971,1.28c0.876,0,1.715-0.308,2.344-0.937
	c1.373-1.373,1.22-3.752-0.342-5.314L26.05,39.698z"/>
</svg>
