<?xml version="1.0" encoding="utf-8"?>
<!-- Generator: Adobe Illustrator 17.0.0, SVG Export Plug-In . SVG Version: 6.00 Build 0)  -->
<!DOCTYPE svg PUBLIC "-//W3C//DTD SVG 1.1//EN" "http://www.w3.org/Graphics/SVG/1.1/DTD/svg11.dtd">
<svg version="1.1" id="Capa_1" xmlns="http://www.w3.org/2000/svg" xmlns:xlink="http://www.w3.org/1999/xlink" x="0px" y="0px"
	 width="64px" height="64px" viewBox="0 0 64 64" enable-background="new 0 0 64 64" xml:space="preserve">
<path fill="#1D1D1B" d="M50.172,47.667c0,4.687-3.813,8.5-8.5,8.5H18.62c-4.687,0-8.5-3.813-8.5-8.5c0-1.933,1.567-3.5,3.5-3.5
	s3.5,1.567,3.5,3.5c0,0.827,0.673,1.5,1.5,1.5h23.052c0.827,0,1.5-0.673,1.5-1.5c0-1.933,1.567-3.5,3.5-3.5
	S50.172,45.734,50.172,47.667z M22.288,22.648l4.358-4.358v19.877c0,1.933,1.567,3.5,3.5,3.5s3.5-1.567,3.5-3.5V18.29l4.357,4.357
	c0.684,0.684,1.579,1.025,2.475,1.025s1.791-0.342,2.475-1.025c1.367-1.367,1.367-3.583,0-4.95L32.621,7.365
	c-0.657-0.657-1.547-1.025-2.475-1.025s-1.818,0.369-2.475,1.025L17.338,17.698c-1.367,1.367-1.367,3.583,0,4.95
	C18.705,24.014,20.921,24.014,22.288,22.648z"/>
</svg>
