<?xml version="1.0" encoding="utf-8"?>
<!-- Generator: Adobe Illustrator 17.0.0, SVG Export Plug-In . SVG Version: 6.00 Build 0)  -->
<!DOCTYPE svg PUBLIC "-//W3C//DTD SVG 1.1//EN" "http://www.w3.org/Graphics/SVG/1.1/DTD/svg11.dtd">
<svg version="1.1" id="Capa_1" xmlns="http://www.w3.org/2000/svg" xmlns:xlink="http://www.w3.org/1999/xlink" x="0px" y="0px"
	 width="64px" height="64px" viewBox="0 0 64 64" enable-background="new 0 0 64 64" xml:space="preserve">
<path d="M41.008,57.078H19.697c-4.904,0-8.136-3.905-7.218-8.723l1.117-5.861c0.918-4.817,7.413-8.723,12.317-8.723h8.88
	c4.904,0,11.399,3.905,12.317,8.723l1.117,5.861C49.143,53.173,45.912,57.078,41.008,57.078z"/>
<g>
	<path d="M30.352,40.579c-7.464,0-13.537-7.169-13.537-15.981S22.888,8.617,30.352,8.617c7.464,0,13.537,7.169,13.537,15.981
		S37.816,40.579,30.352,40.579z"/>
	<path fill="#FFFFFF" d="M30.352,10.393c6.495,0,11.761,6.36,11.761,14.205c0,7.845-5.266,14.205-11.761,14.205
		s-11.761-6.36-11.761-14.205C18.591,16.753,23.857,10.393,30.352,10.393 M30.352,6.841c-8.443,0-15.313,7.966-15.313,17.757
		c0,9.791,6.869,17.757,15.313,17.757s15.313-7.966,15.313-17.757C45.665,14.807,38.796,6.841,30.352,6.841L30.352,6.841z"/>
</g>
</svg>
