<?xml version="1.0" encoding="utf-8"?>
<!-- Generator: Adobe Illustrator 17.0.0, SVG Export Plug-In . SVG Version: 6.00 Build 0)  -->
<!DOCTYPE svg PUBLIC "-//W3C//DTD SVG 1.1//EN" "http://www.w3.org/Graphics/SVG/1.1/DTD/svg11.dtd">
<svg version="1.1" id="Capa_1" xmlns="http://www.w3.org/2000/svg" xmlns:xlink="http://www.w3.org/1999/xlink" x="0px" y="0px"
	 width="64px" height="64px" viewBox="0 0 64 64" enable-background="new 0 0 64 64" xml:space="preserve">
<path d="M31,11.271c-11.448,0-20.729,9.281-20.729,20.729S19.552,52.729,31,52.729S51.729,43.448,51.729,32S42.448,11.271,31,11.271
	z M33.946,35c-0.759,0.746-1.798,1.208-2.946,1.208c-2.324,0-4.208-1.884-4.208-4.208c0-1.148,0.462-2.187,1.208-2.946
	c0.764-0.778,1.824-1.262,3-1.262c1.148,0,2.187,0.462,2.946,1.208c0.018,0.018,0.036,0.036,0.054,0.054
	c0.746,0.759,1.208,1.798,1.208,2.946C35.208,33.176,34.723,34.236,33.946,35z M28,20.333c0-1.657,1.343-3,3-3c1.657,0,3,1.343,3,3
	v6.236c-0.89-0.494-1.912-0.777-3-0.777s-2.11,0.283-3,0.777V20.333z M46.333,35h-9.902c0.494-0.89,0.777-1.912,0.777-3
	s-0.283-2.11-0.777-3h9.902c1.657,0,3,1.343,3,3C49.333,33.657,47.99,35,46.333,35z"/>
</svg>
