<svg width="16" xmlns="http://www.w3.org/2000/svg" height="14" viewBox="0 0 16 14" xmlns:xlink="http://www.w3.org/1999/xlink" enable-background="new 0 0 16 14">
<path d="m12,2.991v-1.982c0-.557-.444-1.009-1-1.009-.553,0-1,.443-1,1.009v1.981c0,.558 .444,1.01 1,1.01 .553,0 1-.443 1-1.009z"/>
<path d="M14.006,2H13v1.002C13,4.102,12.104,5,11,5C9.888,5,9,4.105,9,3.002V2H7v1.002C7,4.102,6.104,5,5,5   C3.888,5,3,4.105,3,3.002V2H1.994C0.893,2,0,2.902,0,4.008v7.983C0,13.101,0.895,14,1.994,14h12.012C15.107,14,16,13.098,16,11.991   V4.008C16,2.899,15.105,2,14.006,2z M7,9v1H6H4v1h3v1H4H3V9h1h2V8H3V7h3h1V9z M13,12h-1V8H9V7h3h1V12z"/>
<path d="M6,2.991V1.009C6,0.452,5.556,0,5,0C4.447,0,4,0.443,4,1.009v1.981C4,3.548,4.444,4,5,4C5.553,4,6,3.557,6,2.991z"/>
</svg>
